M48
; DRILL file KiCad 10.0.3 date 2026-08-18T16:08:50
; FORMAT={-:-/ absolute / metric / decimal}
; #@! TF.CreationDate,2026-08-18T16:08:50-04:00
; #@! TF.GenerationSoftware,Kicad,Pcbnew,10.0.3
; #@! TF.FileFunction,Plated,1,2,PTH
FMAT,2
METRIC
; #@! TA.AperFunction,Plated,PTH,ViaDrill
T1C0.300
; #@! TA.AperFunction,Plated,PTH,ComponentDrill
T2C0.400
; #@! TA.AperFunction,Plated,PTH,ComponentDrill
T3C0.600
; #@! TA.AperFunction,Plated,PTH,ComponentDrill
T4C1.000
; #@! TA.AperFunction,Plated,PTH,ComponentDrill
T5C1.100
%
G90
G05
T1
X116.84Y-132.08
X119.38Y-139.7
X124.46Y-111.76
X127.0Y-116.84
X129.54Y-121.92
X132.08Y-121.92
X134.62Y-116.84
X134.993Y-119.907
X137.16Y-116.84
X139.7Y-116.84
X147.32Y-101.6
X147.32Y-109.22
X152.4Y-106.68
X152.4Y-124.46
X154.938Y-109.22
X154.94Y-99.06
X154.94Y-101.6
X154.94Y-119.38
X154.94Y-132.08
X155.292Y-117.192
X155.313Y-84.193
X157.107Y-119.007
X157.412Y-114.228
X157.48Y-110.3
X157.48Y-121.92
X160.02Y-91.44
X160.02Y-106.68
X160.02Y-109.22
X161.067Y-146.273
X164.646Y-107.7
X165.1Y-91.44
X165.374Y-103.307
X165.887Y-118.158
X167.37Y-81.28
X167.64Y-101.6
X167.92Y-99.34
X169.756Y-122.344
X170.146Y-106.646
X170.18Y-78.74
X170.18Y-114.3
X170.18Y-119.38
X170.18Y-124.46
X172.72Y-96.52
X172.72Y-111.76
X172.72Y-121.92
X175.26Y-134.62
X177.8Y-78.74
X180.34Y-114.3
X180.34Y-116.84
X182.153Y-114.3
X185.42Y-114.3
X190.5Y-137.16
T2
X165.42Y-74.13
X165.42Y-75.48
X166.27Y-74.13
X166.27Y-75.48
X167.12Y-74.13
X167.12Y-75.48
X167.97Y-74.13
X167.97Y-75.48
X168.82Y-74.13
X168.82Y-75.48
X169.67Y-74.13
X169.67Y-75.48
X170.52Y-74.13
X170.52Y-75.48
X171.37Y-74.13
X171.37Y-75.48
T4
X108.51Y-104.9
X111.05Y-104.9
X111.76Y-134.62
X111.76Y-137.16
X111.76Y-139.7
X113.59Y-104.9
X114.3Y-134.62
X114.3Y-137.16
X114.3Y-139.7
X119.78Y-111.09
X119.78Y-113.63
X119.78Y-116.17
X190.5Y-141.13
X193.04Y-141.13
X195.58Y-141.13
X201.77Y-147.32
X201.77Y-149.86
X201.77Y-152.4
T5
X107.8Y-119.38
X107.8Y-123.88
X113.0Y-76.5
X113.0Y-81.0
X113.0Y-85.5
X113.0Y-90.0
X114.3Y-119.38
X114.3Y-123.88
X119.5Y-76.5
X119.5Y-81.0
X119.5Y-85.5
X119.5Y-90.0
X123.5Y-147.5
X123.5Y-152.0
X130.0Y-147.5
X130.0Y-152.0
X133.0Y-139.5
X133.0Y-144.0
X133.0Y-155.5
X133.0Y-160.0
X139.5Y-139.5
X139.5Y-144.0
X139.5Y-155.5
X139.5Y-160.0
X142.5Y-147.5
X142.5Y-152.0
X149.0Y-147.5
X149.0Y-152.0
X189.79Y-155.61
X189.79Y-160.11
X193.0Y-76.5
X193.0Y-81.0
X193.0Y-85.5
X193.0Y-90.0
X196.29Y-155.61
X196.29Y-160.11
X199.5Y-76.5
X199.5Y-81.0
X199.5Y-85.5
X199.5Y-90.0
X200.61Y-113.0
X200.61Y-117.5
X207.11Y-113.0
X207.11Y-117.5
X210.11Y-105.0
X210.11Y-109.5
X210.11Y-121.0
X210.11Y-125.5
X216.61Y-105.0
X216.61Y-109.5
X216.61Y-121.0
X216.61Y-125.5
X219.61Y-113.0
X219.61Y-117.5
X226.11Y-113.0
X226.11Y-117.5
T3
G00X164.07Y-71.52
M15
G01X164.07Y-70.72
M16
G05
G00X164.07Y-75.25
M15
G01X164.07Y-73.75
M16
G05
G00X172.72Y-71.52
M15
G01X172.72Y-70.72
M16
G05
G00X172.72Y-75.25
M15
G01X172.72Y-73.75
M16
G05
M30
