%TF.GenerationSoftware,KiCad,Pcbnew,10.0.3*%
%TF.CreationDate,2026-08-18T16:08:35-04:00*%
%TF.ProjectId,Controller2,436f6e74-726f-46c6-9c65-72322e6b6963,rev?*%
%TF.SameCoordinates,Original*%
%TF.FileFunction,Legend,Top*%
%TF.FilePolarity,Positive*%
%FSLAX46Y46*%
G04 Gerber Fmt 4.6, Leading zero omitted, Abs format (unit mm)*
G04 Created by KiCad (PCBNEW 10.0.3) date 2026-08-18 16:08:35*
%MOMM*%
%LPD*%
G01*
G04 APERTURE LIST*
G04 Aperture macros list*
%AMRoundRect*
0 Rectangle with rounded corners*
0 $1 Rounding radius*
0 $2 $3 $4 $5 $6 $7 $8 $9 X,Y pos of 4 corners*
0 Add a 4 corners polygon primitive as box body*
4,1,4,$2,$3,$4,$5,$6,$7,$8,$9,$2,$3,0*
0 Add four circle primitives for the rounded corners*
1,1,$1+$1,$2,$3*
1,1,$1+$1,$4,$5*
1,1,$1+$1,$6,$7*
1,1,$1+$1,$8,$9*
0 Add four rect primitives between the rounded corners*
20,1,$1+$1,$2,$3,$4,$5,0*
20,1,$1+$1,$4,$5,$6,$7,0*
20,1,$1+$1,$6,$7,$8,$9,0*
20,1,$1+$1,$8,$9,$2,$3,0*%
G04 Aperture macros list end*
%ADD10C,0.150000*%
%ADD11C,0.120000*%
%ADD12C,2.000000*%
%ADD13RoundRect,0.250000X-0.250000X-0.475000X0.250000X-0.475000X0.250000X0.475000X-0.250000X0.475000X0*%
%ADD14R,1.700000X1.700000*%
%ADD15C,1.700000*%
%ADD16RoundRect,0.137500X-0.600000X-0.137500X0.600000X-0.137500X0.600000X0.137500X-0.600000X0.137500X0*%
%ADD17RoundRect,0.137500X-0.137500X-0.600000X0.137500X-0.600000X0.137500X0.600000X-0.137500X0.600000X0*%
%ADD18RoundRect,0.250000X-0.262500X-0.450000X0.262500X-0.450000X0.262500X0.450000X-0.262500X0.450000X0*%
%ADD19RoundRect,0.250000X0.450000X0.350000X-0.450000X0.350000X-0.450000X-0.350000X0.450000X-0.350000X0*%
%ADD20RoundRect,0.250000X0.262500X0.450000X-0.262500X0.450000X-0.262500X-0.450000X0.262500X-0.450000X0*%
%ADD21C,0.700000*%
%ADD22O,0.900000X2.400000*%
%ADD23O,0.900000X1.700000*%
G04 APERTURE END LIST*
D10*
X125416667Y-145907200D02*
X125559524Y-145954819D01*
X125559524Y-145954819D02*
X125797619Y-145954819D01*
X125797619Y-145954819D02*
X125892857Y-145907200D01*
X125892857Y-145907200D02*
X125940476Y-145859580D01*
X125940476Y-145859580D02*
X125988095Y-145764342D01*
X125988095Y-145764342D02*
X125988095Y-145669104D01*
X125988095Y-145669104D02*
X125940476Y-145573866D01*
X125940476Y-145573866D02*
X125892857Y-145526247D01*
X125892857Y-145526247D02*
X125797619Y-145478628D01*
X125797619Y-145478628D02*
X125607143Y-145431009D01*
X125607143Y-145431009D02*
X125511905Y-145383390D01*
X125511905Y-145383390D02*
X125464286Y-145335771D01*
X125464286Y-145335771D02*
X125416667Y-145240533D01*
X125416667Y-145240533D02*
X125416667Y-145145295D01*
X125416667Y-145145295D02*
X125464286Y-145050057D01*
X125464286Y-145050057D02*
X125511905Y-145002438D01*
X125511905Y-145002438D02*
X125607143Y-144954819D01*
X125607143Y-144954819D02*
X125845238Y-144954819D01*
X125845238Y-144954819D02*
X125988095Y-145002438D01*
X126321429Y-144954819D02*
X126559524Y-145954819D01*
X126559524Y-145954819D02*
X126750000Y-145240533D01*
X126750000Y-145240533D02*
X126940476Y-145954819D01*
X126940476Y-145954819D02*
X127178572Y-144954819D01*
X127988095Y-145288152D02*
X127988095Y-145954819D01*
X127750000Y-144907200D02*
X127511905Y-145621485D01*
X127511905Y-145621485D02*
X128130952Y-145621485D01*
X176683333Y-115519580D02*
X176635714Y-115567200D01*
X176635714Y-115567200D02*
X176492857Y-115614819D01*
X176492857Y-115614819D02*
X176397619Y-115614819D01*
X176397619Y-115614819D02*
X176254762Y-115567200D01*
X176254762Y-115567200D02*
X176159524Y-115471961D01*
X176159524Y-115471961D02*
X176111905Y-115376723D01*
X176111905Y-115376723D02*
X176064286Y-115186247D01*
X176064286Y-115186247D02*
X176064286Y-115043390D01*
X176064286Y-115043390D02*
X176111905Y-114852914D01*
X176111905Y-114852914D02*
X176159524Y-114757676D01*
X176159524Y-114757676D02*
X176254762Y-114662438D01*
X176254762Y-114662438D02*
X176397619Y-114614819D01*
X176397619Y-114614819D02*
X176492857Y-114614819D01*
X176492857Y-114614819D02*
X176635714Y-114662438D01*
X176635714Y-114662438D02*
X176683333Y-114710057D01*
X177540476Y-114614819D02*
X177350000Y-114614819D01*
X177350000Y-114614819D02*
X177254762Y-114662438D01*
X177254762Y-114662438D02*
X177207143Y-114710057D01*
X177207143Y-114710057D02*
X177111905Y-114852914D01*
X177111905Y-114852914D02*
X177064286Y-115043390D01*
X177064286Y-115043390D02*
X177064286Y-115424342D01*
X177064286Y-115424342D02*
X177111905Y-115519580D01*
X177111905Y-115519580D02*
X177159524Y-115567200D01*
X177159524Y-115567200D02*
X177254762Y-115614819D01*
X177254762Y-115614819D02*
X177445238Y-115614819D01*
X177445238Y-115614819D02*
X177540476Y-115567200D01*
X177540476Y-115567200D02*
X177588095Y-115519580D01*
X177588095Y-115519580D02*
X177635714Y-115424342D01*
X177635714Y-115424342D02*
X177635714Y-115186247D01*
X177635714Y-115186247D02*
X177588095Y-115091009D01*
X177588095Y-115091009D02*
X177540476Y-115043390D01*
X177540476Y-115043390D02*
X177445238Y-114995771D01*
X177445238Y-114995771D02*
X177254762Y-114995771D01*
X177254762Y-114995771D02*
X177159524Y-115043390D01*
X177159524Y-115043390D02*
X177111905Y-115091009D01*
X177111905Y-115091009D02*
X177064286Y-115186247D01*
X119184761Y-109164819D02*
X118851428Y-108688628D01*
X118613333Y-109164819D02*
X118613333Y-108164819D01*
X118613333Y-108164819D02*
X118994285Y-108164819D01*
X118994285Y-108164819D02*
X119089523Y-108212438D01*
X119089523Y-108212438D02*
X119137142Y-108260057D01*
X119137142Y-108260057D02*
X119184761Y-108355295D01*
X119184761Y-108355295D02*
X119184761Y-108498152D01*
X119184761Y-108498152D02*
X119137142Y-108593390D01*
X119137142Y-108593390D02*
X119089523Y-108641009D01*
X119089523Y-108641009D02*
X118994285Y-108688628D01*
X118994285Y-108688628D02*
X118613333Y-108688628D01*
X119470476Y-108164819D02*
X119803809Y-109164819D01*
X119803809Y-109164819D02*
X120137142Y-108164819D01*
X120422857Y-108260057D02*
X120470476Y-108212438D01*
X120470476Y-108212438D02*
X120565714Y-108164819D01*
X120565714Y-108164819D02*
X120803809Y-108164819D01*
X120803809Y-108164819D02*
X120899047Y-108212438D01*
X120899047Y-108212438D02*
X120946666Y-108260057D01*
X120946666Y-108260057D02*
X120994285Y-108355295D01*
X120994285Y-108355295D02*
X120994285Y-108450533D01*
X120994285Y-108450533D02*
X120946666Y-108593390D01*
X120946666Y-108593390D02*
X120375238Y-109164819D01*
X120375238Y-109164819D02*
X120994285Y-109164819D01*
X201174761Y-145394819D02*
X200841428Y-144918628D01*
X200603333Y-145394819D02*
X200603333Y-144394819D01*
X200603333Y-144394819D02*
X200984285Y-144394819D01*
X200984285Y-144394819D02*
X201079523Y-144442438D01*
X201079523Y-144442438D02*
X201127142Y-144490057D01*
X201127142Y-144490057D02*
X201174761Y-144585295D01*
X201174761Y-144585295D02*
X201174761Y-144728152D01*
X201174761Y-144728152D02*
X201127142Y-144823390D01*
X201127142Y-144823390D02*
X201079523Y-144871009D01*
X201079523Y-144871009D02*
X200984285Y-144918628D01*
X200984285Y-144918628D02*
X200603333Y-144918628D01*
X201460476Y-144394819D02*
X201793809Y-145394819D01*
X201793809Y-145394819D02*
X202127142Y-144394819D01*
X202889047Y-144728152D02*
X202889047Y-145394819D01*
X202650952Y-144347200D02*
X202412857Y-145061485D01*
X202412857Y-145061485D02*
X203031904Y-145061485D01*
X202526667Y-111407200D02*
X202669524Y-111454819D01*
X202669524Y-111454819D02*
X202907619Y-111454819D01*
X202907619Y-111454819D02*
X203002857Y-111407200D01*
X203002857Y-111407200D02*
X203050476Y-111359580D01*
X203050476Y-111359580D02*
X203098095Y-111264342D01*
X203098095Y-111264342D02*
X203098095Y-111169104D01*
X203098095Y-111169104D02*
X203050476Y-111073866D01*
X203050476Y-111073866D02*
X203002857Y-111026247D01*
X203002857Y-111026247D02*
X202907619Y-110978628D01*
X202907619Y-110978628D02*
X202717143Y-110931009D01*
X202717143Y-110931009D02*
X202621905Y-110883390D01*
X202621905Y-110883390D02*
X202574286Y-110835771D01*
X202574286Y-110835771D02*
X202526667Y-110740533D01*
X202526667Y-110740533D02*
X202526667Y-110645295D01*
X202526667Y-110645295D02*
X202574286Y-110550057D01*
X202574286Y-110550057D02*
X202621905Y-110502438D01*
X202621905Y-110502438D02*
X202717143Y-110454819D01*
X202717143Y-110454819D02*
X202955238Y-110454819D01*
X202955238Y-110454819D02*
X203098095Y-110502438D01*
X203431429Y-110454819D02*
X203669524Y-111454819D01*
X203669524Y-111454819D02*
X203860000Y-110740533D01*
X203860000Y-110740533D02*
X204050476Y-111454819D01*
X204050476Y-111454819D02*
X204288572Y-110454819D01*
X204812381Y-110883390D02*
X204717143Y-110835771D01*
X204717143Y-110835771D02*
X204669524Y-110788152D01*
X204669524Y-110788152D02*
X204621905Y-110692914D01*
X204621905Y-110692914D02*
X204621905Y-110645295D01*
X204621905Y-110645295D02*
X204669524Y-110550057D01*
X204669524Y-110550057D02*
X204717143Y-110502438D01*
X204717143Y-110502438D02*
X204812381Y-110454819D01*
X204812381Y-110454819D02*
X205002857Y-110454819D01*
X205002857Y-110454819D02*
X205098095Y-110502438D01*
X205098095Y-110502438D02*
X205145714Y-110550057D01*
X205145714Y-110550057D02*
X205193333Y-110645295D01*
X205193333Y-110645295D02*
X205193333Y-110692914D01*
X205193333Y-110692914D02*
X205145714Y-110788152D01*
X205145714Y-110788152D02*
X205098095Y-110835771D01*
X205098095Y-110835771D02*
X205002857Y-110883390D01*
X205002857Y-110883390D02*
X204812381Y-110883390D01*
X204812381Y-110883390D02*
X204717143Y-110931009D01*
X204717143Y-110931009D02*
X204669524Y-110978628D01*
X204669524Y-110978628D02*
X204621905Y-111073866D01*
X204621905Y-111073866D02*
X204621905Y-111264342D01*
X204621905Y-111264342D02*
X204669524Y-111359580D01*
X204669524Y-111359580D02*
X204717143Y-111407200D01*
X204717143Y-111407200D02*
X204812381Y-111454819D01*
X204812381Y-111454819D02*
X205002857Y-111454819D01*
X205002857Y-111454819D02*
X205098095Y-111407200D01*
X205098095Y-111407200D02*
X205145714Y-111359580D01*
X205145714Y-111359580D02*
X205193333Y-111264342D01*
X205193333Y-111264342D02*
X205193333Y-111073866D01*
X205193333Y-111073866D02*
X205145714Y-110978628D01*
X205145714Y-110978628D02*
X205098095Y-110931009D01*
X205098095Y-110931009D02*
X205002857Y-110883390D01*
X194440476Y-74907200D02*
X194583333Y-74954819D01*
X194583333Y-74954819D02*
X194821428Y-74954819D01*
X194821428Y-74954819D02*
X194916666Y-74907200D01*
X194916666Y-74907200D02*
X194964285Y-74859580D01*
X194964285Y-74859580D02*
X195011904Y-74764342D01*
X195011904Y-74764342D02*
X195011904Y-74669104D01*
X195011904Y-74669104D02*
X194964285Y-74573866D01*
X194964285Y-74573866D02*
X194916666Y-74526247D01*
X194916666Y-74526247D02*
X194821428Y-74478628D01*
X194821428Y-74478628D02*
X194630952Y-74431009D01*
X194630952Y-74431009D02*
X194535714Y-74383390D01*
X194535714Y-74383390D02*
X194488095Y-74335771D01*
X194488095Y-74335771D02*
X194440476Y-74240533D01*
X194440476Y-74240533D02*
X194440476Y-74145295D01*
X194440476Y-74145295D02*
X194488095Y-74050057D01*
X194488095Y-74050057D02*
X194535714Y-74002438D01*
X194535714Y-74002438D02*
X194630952Y-73954819D01*
X194630952Y-73954819D02*
X194869047Y-73954819D01*
X194869047Y-73954819D02*
X195011904Y-74002438D01*
X195345238Y-73954819D02*
X195583333Y-74954819D01*
X195583333Y-74954819D02*
X195773809Y-74240533D01*
X195773809Y-74240533D02*
X195964285Y-74954819D01*
X195964285Y-74954819D02*
X196202381Y-73954819D01*
X197107142Y-74954819D02*
X196535714Y-74954819D01*
X196821428Y-74954819D02*
X196821428Y-73954819D01*
X196821428Y-73954819D02*
X196726190Y-74097676D01*
X196726190Y-74097676D02*
X196630952Y-74192914D01*
X196630952Y-74192914D02*
X196535714Y-74240533D01*
X197726190Y-73954819D02*
X197821428Y-73954819D01*
X197821428Y-73954819D02*
X197916666Y-74002438D01*
X197916666Y-74002438D02*
X197964285Y-74050057D01*
X197964285Y-74050057D02*
X198011904Y-74145295D01*
X198011904Y-74145295D02*
X198059523Y-74335771D01*
X198059523Y-74335771D02*
X198059523Y-74573866D01*
X198059523Y-74573866D02*
X198011904Y-74764342D01*
X198011904Y-74764342D02*
X197964285Y-74859580D01*
X197964285Y-74859580D02*
X197916666Y-74907200D01*
X197916666Y-74907200D02*
X197821428Y-74954819D01*
X197821428Y-74954819D02*
X197726190Y-74954819D01*
X197726190Y-74954819D02*
X197630952Y-74907200D01*
X197630952Y-74907200D02*
X197583333Y-74859580D01*
X197583333Y-74859580D02*
X197535714Y-74764342D01*
X197535714Y-74764342D02*
X197488095Y-74573866D01*
X197488095Y-74573866D02*
X197488095Y-74335771D01*
X197488095Y-74335771D02*
X197535714Y-74145295D01*
X197535714Y-74145295D02*
X197583333Y-74050057D01*
X197583333Y-74050057D02*
X197630952Y-74002438D01*
X197630952Y-74002438D02*
X197726190Y-73954819D01*
X157383333Y-130759580D02*
X157335714Y-130807200D01*
X157335714Y-130807200D02*
X157192857Y-130854819D01*
X157192857Y-130854819D02*
X157097619Y-130854819D01*
X157097619Y-130854819D02*
X156954762Y-130807200D01*
X156954762Y-130807200D02*
X156859524Y-130711961D01*
X156859524Y-130711961D02*
X156811905Y-130616723D01*
X156811905Y-130616723D02*
X156764286Y-130426247D01*
X156764286Y-130426247D02*
X156764286Y-130283390D01*
X156764286Y-130283390D02*
X156811905Y-130092914D01*
X156811905Y-130092914D02*
X156859524Y-129997676D01*
X156859524Y-129997676D02*
X156954762Y-129902438D01*
X156954762Y-129902438D02*
X157097619Y-129854819D01*
X157097619Y-129854819D02*
X157192857Y-129854819D01*
X157192857Y-129854819D02*
X157335714Y-129902438D01*
X157335714Y-129902438D02*
X157383333Y-129950057D01*
X158240476Y-130188152D02*
X158240476Y-130854819D01*
X158002381Y-129807200D02*
X157764286Y-130521485D01*
X157764286Y-130521485D02*
X158383333Y-130521485D01*
X161075595Y-102204819D02*
X161075595Y-103014342D01*
X161075595Y-103014342D02*
X161123214Y-103109580D01*
X161123214Y-103109580D02*
X161170833Y-103157200D01*
X161170833Y-103157200D02*
X161266071Y-103204819D01*
X161266071Y-103204819D02*
X161456547Y-103204819D01*
X161456547Y-103204819D02*
X161551785Y-103157200D01*
X161551785Y-103157200D02*
X161599404Y-103109580D01*
X161599404Y-103109580D02*
X161647023Y-103014342D01*
X161647023Y-103014342D02*
X161647023Y-102204819D01*
X162647023Y-103204819D02*
X162075595Y-103204819D01*
X162361309Y-103204819D02*
X162361309Y-102204819D01*
X162361309Y-102204819D02*
X162266071Y-102347676D01*
X162266071Y-102347676D02*
X162170833Y-102442914D01*
X162170833Y-102442914D02*
X162075595Y-102490533D01*
X151283333Y-108179580D02*
X151235714Y-108227200D01*
X151235714Y-108227200D02*
X151092857Y-108274819D01*
X151092857Y-108274819D02*
X150997619Y-108274819D01*
X150997619Y-108274819D02*
X150854762Y-108227200D01*
X150854762Y-108227200D02*
X150759524Y-108131961D01*
X150759524Y-108131961D02*
X150711905Y-108036723D01*
X150711905Y-108036723D02*
X150664286Y-107846247D01*
X150664286Y-107846247D02*
X150664286Y-107703390D01*
X150664286Y-107703390D02*
X150711905Y-107512914D01*
X150711905Y-107512914D02*
X150759524Y-107417676D01*
X150759524Y-107417676D02*
X150854762Y-107322438D01*
X150854762Y-107322438D02*
X150997619Y-107274819D01*
X150997619Y-107274819D02*
X151092857Y-107274819D01*
X151092857Y-107274819D02*
X151235714Y-107322438D01*
X151235714Y-107322438D02*
X151283333Y-107370057D01*
X152235714Y-108274819D02*
X151664286Y-108274819D01*
X151950000Y-108274819D02*
X151950000Y-107274819D01*
X151950000Y-107274819D02*
X151854762Y-107417676D01*
X151854762Y-107417676D02*
X151759524Y-107512914D01*
X151759524Y-107512914D02*
X151664286Y-107560533D01*
X114440476Y-83907200D02*
X114583333Y-83954819D01*
X114583333Y-83954819D02*
X114821428Y-83954819D01*
X114821428Y-83954819D02*
X114916666Y-83907200D01*
X114916666Y-83907200D02*
X114964285Y-83859580D01*
X114964285Y-83859580D02*
X115011904Y-83764342D01*
X115011904Y-83764342D02*
X115011904Y-83669104D01*
X115011904Y-83669104D02*
X114964285Y-83573866D01*
X114964285Y-83573866D02*
X114916666Y-83526247D01*
X114916666Y-83526247D02*
X114821428Y-83478628D01*
X114821428Y-83478628D02*
X114630952Y-83431009D01*
X114630952Y-83431009D02*
X114535714Y-83383390D01*
X114535714Y-83383390D02*
X114488095Y-83335771D01*
X114488095Y-83335771D02*
X114440476Y-83240533D01*
X114440476Y-83240533D02*
X114440476Y-83145295D01*
X114440476Y-83145295D02*
X114488095Y-83050057D01*
X114488095Y-83050057D02*
X114535714Y-83002438D01*
X114535714Y-83002438D02*
X114630952Y-82954819D01*
X114630952Y-82954819D02*
X114869047Y-82954819D01*
X114869047Y-82954819D02*
X115011904Y-83002438D01*
X115345238Y-82954819D02*
X115583333Y-83954819D01*
X115583333Y-83954819D02*
X115773809Y-83240533D01*
X115773809Y-83240533D02*
X115964285Y-83954819D01*
X115964285Y-83954819D02*
X116202381Y-82954819D01*
X117107142Y-83954819D02*
X116535714Y-83954819D01*
X116821428Y-83954819D02*
X116821428Y-82954819D01*
X116821428Y-82954819D02*
X116726190Y-83097676D01*
X116726190Y-83097676D02*
X116630952Y-83192914D01*
X116630952Y-83192914D02*
X116535714Y-83240533D01*
X118059523Y-83954819D02*
X117488095Y-83954819D01*
X117773809Y-83954819D02*
X117773809Y-82954819D01*
X117773809Y-82954819D02*
X117678571Y-83097676D01*
X117678571Y-83097676D02*
X117583333Y-83192914D01*
X117583333Y-83192914D02*
X117488095Y-83240533D01*
X106584819Y-105495238D02*
X106108628Y-105828571D01*
X106584819Y-106066666D02*
X105584819Y-106066666D01*
X105584819Y-106066666D02*
X105584819Y-105685714D01*
X105584819Y-105685714D02*
X105632438Y-105590476D01*
X105632438Y-105590476D02*
X105680057Y-105542857D01*
X105680057Y-105542857D02*
X105775295Y-105495238D01*
X105775295Y-105495238D02*
X105918152Y-105495238D01*
X105918152Y-105495238D02*
X106013390Y-105542857D01*
X106013390Y-105542857D02*
X106061009Y-105590476D01*
X106061009Y-105590476D02*
X106108628Y-105685714D01*
X106108628Y-105685714D02*
X106108628Y-106066666D01*
X105584819Y-105209523D02*
X106584819Y-104876190D01*
X106584819Y-104876190D02*
X105584819Y-104542857D01*
X106584819Y-103685714D02*
X106584819Y-104257142D01*
X106584819Y-103971428D02*
X105584819Y-103971428D01*
X105584819Y-103971428D02*
X105727676Y-104066666D01*
X105727676Y-104066666D02*
X105822914Y-104161904D01*
X105822914Y-104161904D02*
X105870533Y-104257142D01*
X170925833Y-97864819D02*
X170592500Y-97388628D01*
X170354405Y-97864819D02*
X170354405Y-96864819D01*
X170354405Y-96864819D02*
X170735357Y-96864819D01*
X170735357Y-96864819D02*
X170830595Y-96912438D01*
X170830595Y-96912438D02*
X170878214Y-96960057D01*
X170878214Y-96960057D02*
X170925833Y-97055295D01*
X170925833Y-97055295D02*
X170925833Y-97198152D01*
X170925833Y-97198152D02*
X170878214Y-97293390D01*
X170878214Y-97293390D02*
X170830595Y-97341009D01*
X170830595Y-97341009D02*
X170735357Y-97388628D01*
X170735357Y-97388628D02*
X170354405Y-97388628D01*
X171782976Y-96864819D02*
X171592500Y-96864819D01*
X171592500Y-96864819D02*
X171497262Y-96912438D01*
X171497262Y-96912438D02*
X171449643Y-96960057D01*
X171449643Y-96960057D02*
X171354405Y-97102914D01*
X171354405Y-97102914D02*
X171306786Y-97293390D01*
X171306786Y-97293390D02*
X171306786Y-97674342D01*
X171306786Y-97674342D02*
X171354405Y-97769580D01*
X171354405Y-97769580D02*
X171402024Y-97817200D01*
X171402024Y-97817200D02*
X171497262Y-97864819D01*
X171497262Y-97864819D02*
X171687738Y-97864819D01*
X171687738Y-97864819D02*
X171782976Y-97817200D01*
X171782976Y-97817200D02*
X171830595Y-97769580D01*
X171830595Y-97769580D02*
X171878214Y-97674342D01*
X171878214Y-97674342D02*
X171878214Y-97436247D01*
X171878214Y-97436247D02*
X171830595Y-97341009D01*
X171830595Y-97341009D02*
X171782976Y-97293390D01*
X171782976Y-97293390D02*
X171687738Y-97245771D01*
X171687738Y-97245771D02*
X171497262Y-97245771D01*
X171497262Y-97245771D02*
X171402024Y-97293390D01*
X171402024Y-97293390D02*
X171354405Y-97341009D01*
X171354405Y-97341009D02*
X171306786Y-97436247D01*
X157843333Y-123759580D02*
X157795714Y-123807200D01*
X157795714Y-123807200D02*
X157652857Y-123854819D01*
X157652857Y-123854819D02*
X157557619Y-123854819D01*
X157557619Y-123854819D02*
X157414762Y-123807200D01*
X157414762Y-123807200D02*
X157319524Y-123711961D01*
X157319524Y-123711961D02*
X157271905Y-123616723D01*
X157271905Y-123616723D02*
X157224286Y-123426247D01*
X157224286Y-123426247D02*
X157224286Y-123283390D01*
X157224286Y-123283390D02*
X157271905Y-123092914D01*
X157271905Y-123092914D02*
X157319524Y-122997676D01*
X157319524Y-122997676D02*
X157414762Y-122902438D01*
X157414762Y-122902438D02*
X157557619Y-122854819D01*
X157557619Y-122854819D02*
X157652857Y-122854819D01*
X157652857Y-122854819D02*
X157795714Y-122902438D01*
X157795714Y-122902438D02*
X157843333Y-122950057D01*
X158224286Y-122950057D02*
X158271905Y-122902438D01*
X158271905Y-122902438D02*
X158367143Y-122854819D01*
X158367143Y-122854819D02*
X158605238Y-122854819D01*
X158605238Y-122854819D02*
X158700476Y-122902438D01*
X158700476Y-122902438D02*
X158748095Y-122950057D01*
X158748095Y-122950057D02*
X158795714Y-123045295D01*
X158795714Y-123045295D02*
X158795714Y-123140533D01*
X158795714Y-123140533D02*
X158748095Y-123283390D01*
X158748095Y-123283390D02*
X158176667Y-123854819D01*
X158176667Y-123854819D02*
X158795714Y-123854819D01*
X114440476Y-74907200D02*
X114583333Y-74954819D01*
X114583333Y-74954819D02*
X114821428Y-74954819D01*
X114821428Y-74954819D02*
X114916666Y-74907200D01*
X114916666Y-74907200D02*
X114964285Y-74859580D01*
X114964285Y-74859580D02*
X115011904Y-74764342D01*
X115011904Y-74764342D02*
X115011904Y-74669104D01*
X115011904Y-74669104D02*
X114964285Y-74573866D01*
X114964285Y-74573866D02*
X114916666Y-74526247D01*
X114916666Y-74526247D02*
X114821428Y-74478628D01*
X114821428Y-74478628D02*
X114630952Y-74431009D01*
X114630952Y-74431009D02*
X114535714Y-74383390D01*
X114535714Y-74383390D02*
X114488095Y-74335771D01*
X114488095Y-74335771D02*
X114440476Y-74240533D01*
X114440476Y-74240533D02*
X114440476Y-74145295D01*
X114440476Y-74145295D02*
X114488095Y-74050057D01*
X114488095Y-74050057D02*
X114535714Y-74002438D01*
X114535714Y-74002438D02*
X114630952Y-73954819D01*
X114630952Y-73954819D02*
X114869047Y-73954819D01*
X114869047Y-73954819D02*
X115011904Y-74002438D01*
X115345238Y-73954819D02*
X115583333Y-74954819D01*
X115583333Y-74954819D02*
X115773809Y-74240533D01*
X115773809Y-74240533D02*
X115964285Y-74954819D01*
X115964285Y-74954819D02*
X116202381Y-73954819D01*
X117107142Y-74954819D02*
X116535714Y-74954819D01*
X116821428Y-74954819D02*
X116821428Y-73954819D01*
X116821428Y-73954819D02*
X116726190Y-74097676D01*
X116726190Y-74097676D02*
X116630952Y-74192914D01*
X116630952Y-74192914D02*
X116535714Y-74240533D01*
X117488095Y-74050057D02*
X117535714Y-74002438D01*
X117535714Y-74002438D02*
X117630952Y-73954819D01*
X117630952Y-73954819D02*
X117869047Y-73954819D01*
X117869047Y-73954819D02*
X117964285Y-74002438D01*
X117964285Y-74002438D02*
X118011904Y-74050057D01*
X118011904Y-74050057D02*
X118059523Y-74145295D01*
X118059523Y-74145295D02*
X118059523Y-74240533D01*
X118059523Y-74240533D02*
X118011904Y-74383390D01*
X118011904Y-74383390D02*
X117440476Y-74954819D01*
X117440476Y-74954819D02*
X118059523Y-74954819D01*
X144416667Y-145907200D02*
X144559524Y-145954819D01*
X144559524Y-145954819D02*
X144797619Y-145954819D01*
X144797619Y-145954819D02*
X144892857Y-145907200D01*
X144892857Y-145907200D02*
X144940476Y-145859580D01*
X144940476Y-145859580D02*
X144988095Y-145764342D01*
X144988095Y-145764342D02*
X144988095Y-145669104D01*
X144988095Y-145669104D02*
X144940476Y-145573866D01*
X144940476Y-145573866D02*
X144892857Y-145526247D01*
X144892857Y-145526247D02*
X144797619Y-145478628D01*
X144797619Y-145478628D02*
X144607143Y-145431009D01*
X144607143Y-145431009D02*
X144511905Y-145383390D01*
X144511905Y-145383390D02*
X144464286Y-145335771D01*
X144464286Y-145335771D02*
X144416667Y-145240533D01*
X144416667Y-145240533D02*
X144416667Y-145145295D01*
X144416667Y-145145295D02*
X144464286Y-145050057D01*
X144464286Y-145050057D02*
X144511905Y-145002438D01*
X144511905Y-145002438D02*
X144607143Y-144954819D01*
X144607143Y-144954819D02*
X144845238Y-144954819D01*
X144845238Y-144954819D02*
X144988095Y-145002438D01*
X145321429Y-144954819D02*
X145559524Y-145954819D01*
X145559524Y-145954819D02*
X145750000Y-145240533D01*
X145750000Y-145240533D02*
X145940476Y-145954819D01*
X145940476Y-145954819D02*
X146178572Y-144954819D01*
X147083333Y-145954819D02*
X146511905Y-145954819D01*
X146797619Y-145954819D02*
X146797619Y-144954819D01*
X146797619Y-144954819D02*
X146702381Y-145097676D01*
X146702381Y-145097676D02*
X146607143Y-145192914D01*
X146607143Y-145192914D02*
X146511905Y-145240533D01*
X212026667Y-103407200D02*
X212169524Y-103454819D01*
X212169524Y-103454819D02*
X212407619Y-103454819D01*
X212407619Y-103454819D02*
X212502857Y-103407200D01*
X212502857Y-103407200D02*
X212550476Y-103359580D01*
X212550476Y-103359580D02*
X212598095Y-103264342D01*
X212598095Y-103264342D02*
X212598095Y-103169104D01*
X212598095Y-103169104D02*
X212550476Y-103073866D01*
X212550476Y-103073866D02*
X212502857Y-103026247D01*
X212502857Y-103026247D02*
X212407619Y-102978628D01*
X212407619Y-102978628D02*
X212217143Y-102931009D01*
X212217143Y-102931009D02*
X212121905Y-102883390D01*
X212121905Y-102883390D02*
X212074286Y-102835771D01*
X212074286Y-102835771D02*
X212026667Y-102740533D01*
X212026667Y-102740533D02*
X212026667Y-102645295D01*
X212026667Y-102645295D02*
X212074286Y-102550057D01*
X212074286Y-102550057D02*
X212121905Y-102502438D01*
X212121905Y-102502438D02*
X212217143Y-102454819D01*
X212217143Y-102454819D02*
X212455238Y-102454819D01*
X212455238Y-102454819D02*
X212598095Y-102502438D01*
X212931429Y-102454819D02*
X213169524Y-103454819D01*
X213169524Y-103454819D02*
X213360000Y-102740533D01*
X213360000Y-102740533D02*
X213550476Y-103454819D01*
X213550476Y-103454819D02*
X213788572Y-102454819D01*
X214074286Y-102454819D02*
X214740952Y-102454819D01*
X214740952Y-102454819D02*
X214312381Y-103454819D01*
X112696666Y-131694819D02*
X112696666Y-132409104D01*
X112696666Y-132409104D02*
X112649047Y-132551961D01*
X112649047Y-132551961D02*
X112553809Y-132647200D01*
X112553809Y-132647200D02*
X112410952Y-132694819D01*
X112410952Y-132694819D02*
X112315714Y-132694819D01*
X113125238Y-131790057D02*
X113172857Y-131742438D01*
X113172857Y-131742438D02*
X113268095Y-131694819D01*
X113268095Y-131694819D02*
X113506190Y-131694819D01*
X113506190Y-131694819D02*
X113601428Y-131742438D01*
X113601428Y-131742438D02*
X113649047Y-131790057D01*
X113649047Y-131790057D02*
X113696666Y-131885295D01*
X113696666Y-131885295D02*
X113696666Y-131980533D01*
X113696666Y-131980533D02*
X113649047Y-132123390D01*
X113649047Y-132123390D02*
X113077619Y-132694819D01*
X113077619Y-132694819D02*
X113696666Y-132694819D01*
X160643809Y-122658628D02*
X160643809Y-123134819D01*
X160310476Y-122134819D02*
X160643809Y-122658628D01*
X160643809Y-122658628D02*
X160977142Y-122134819D01*
X161834285Y-123134819D02*
X161262857Y-123134819D01*
X161548571Y-123134819D02*
X161548571Y-122134819D01*
X161548571Y-122134819D02*
X161453333Y-122277676D01*
X161453333Y-122277676D02*
X161358095Y-122372914D01*
X161358095Y-122372914D02*
X161262857Y-122420533D01*
X212026667Y-119407200D02*
X212169524Y-119454819D01*
X212169524Y-119454819D02*
X212407619Y-119454819D01*
X212407619Y-119454819D02*
X212502857Y-119407200D01*
X212502857Y-119407200D02*
X212550476Y-119359580D01*
X212550476Y-119359580D02*
X212598095Y-119264342D01*
X212598095Y-119264342D02*
X212598095Y-119169104D01*
X212598095Y-119169104D02*
X212550476Y-119073866D01*
X212550476Y-119073866D02*
X212502857Y-119026247D01*
X212502857Y-119026247D02*
X212407619Y-118978628D01*
X212407619Y-118978628D02*
X212217143Y-118931009D01*
X212217143Y-118931009D02*
X212121905Y-118883390D01*
X212121905Y-118883390D02*
X212074286Y-118835771D01*
X212074286Y-118835771D02*
X212026667Y-118740533D01*
X212026667Y-118740533D02*
X212026667Y-118645295D01*
X212026667Y-118645295D02*
X212074286Y-118550057D01*
X212074286Y-118550057D02*
X212121905Y-118502438D01*
X212121905Y-118502438D02*
X212217143Y-118454819D01*
X212217143Y-118454819D02*
X212455238Y-118454819D01*
X212455238Y-118454819D02*
X212598095Y-118502438D01*
X212931429Y-118454819D02*
X213169524Y-119454819D01*
X213169524Y-119454819D02*
X213360000Y-118740533D01*
X213360000Y-118740533D02*
X213550476Y-119454819D01*
X213550476Y-119454819D02*
X213788572Y-118454819D01*
X214598095Y-118454819D02*
X214407619Y-118454819D01*
X214407619Y-118454819D02*
X214312381Y-118502438D01*
X214312381Y-118502438D02*
X214264762Y-118550057D01*
X214264762Y-118550057D02*
X214169524Y-118692914D01*
X214169524Y-118692914D02*
X214121905Y-118883390D01*
X214121905Y-118883390D02*
X214121905Y-119264342D01*
X214121905Y-119264342D02*
X214169524Y-119359580D01*
X214169524Y-119359580D02*
X214217143Y-119407200D01*
X214217143Y-119407200D02*
X214312381Y-119454819D01*
X214312381Y-119454819D02*
X214502857Y-119454819D01*
X214502857Y-119454819D02*
X214598095Y-119407200D01*
X214598095Y-119407200D02*
X214645714Y-119359580D01*
X214645714Y-119359580D02*
X214693333Y-119264342D01*
X214693333Y-119264342D02*
X214693333Y-119026247D01*
X214693333Y-119026247D02*
X214645714Y-118931009D01*
X214645714Y-118931009D02*
X214598095Y-118883390D01*
X214598095Y-118883390D02*
X214502857Y-118835771D01*
X214502857Y-118835771D02*
X214312381Y-118835771D01*
X214312381Y-118835771D02*
X214217143Y-118883390D01*
X214217143Y-118883390D02*
X214169524Y-118931009D01*
X214169524Y-118931009D02*
X214121905Y-119026247D01*
X172553333Y-86814819D02*
X172220000Y-86338628D01*
X171981905Y-86814819D02*
X171981905Y-85814819D01*
X171981905Y-85814819D02*
X172362857Y-85814819D01*
X172362857Y-85814819D02*
X172458095Y-85862438D01*
X172458095Y-85862438D02*
X172505714Y-85910057D01*
X172505714Y-85910057D02*
X172553333Y-86005295D01*
X172553333Y-86005295D02*
X172553333Y-86148152D01*
X172553333Y-86148152D02*
X172505714Y-86243390D01*
X172505714Y-86243390D02*
X172458095Y-86291009D01*
X172458095Y-86291009D02*
X172362857Y-86338628D01*
X172362857Y-86338628D02*
X171981905Y-86338628D01*
X173410476Y-86148152D02*
X173410476Y-86814819D01*
X173172381Y-85767200D02*
X172934286Y-86481485D01*
X172934286Y-86481485D02*
X173553333Y-86481485D01*
X153183333Y-120599580D02*
X153135714Y-120647200D01*
X153135714Y-120647200D02*
X152992857Y-120694819D01*
X152992857Y-120694819D02*
X152897619Y-120694819D01*
X152897619Y-120694819D02*
X152754762Y-120647200D01*
X152754762Y-120647200D02*
X152659524Y-120551961D01*
X152659524Y-120551961D02*
X152611905Y-120456723D01*
X152611905Y-120456723D02*
X152564286Y-120266247D01*
X152564286Y-120266247D02*
X152564286Y-120123390D01*
X152564286Y-120123390D02*
X152611905Y-119932914D01*
X152611905Y-119932914D02*
X152659524Y-119837676D01*
X152659524Y-119837676D02*
X152754762Y-119742438D01*
X152754762Y-119742438D02*
X152897619Y-119694819D01*
X152897619Y-119694819D02*
X152992857Y-119694819D01*
X152992857Y-119694819D02*
X153135714Y-119742438D01*
X153135714Y-119742438D02*
X153183333Y-119790057D01*
X154088095Y-119694819D02*
X153611905Y-119694819D01*
X153611905Y-119694819D02*
X153564286Y-120171009D01*
X153564286Y-120171009D02*
X153611905Y-120123390D01*
X153611905Y-120123390D02*
X153707143Y-120075771D01*
X153707143Y-120075771D02*
X153945238Y-120075771D01*
X153945238Y-120075771D02*
X154040476Y-120123390D01*
X154040476Y-120123390D02*
X154088095Y-120171009D01*
X154088095Y-120171009D02*
X154135714Y-120266247D01*
X154135714Y-120266247D02*
X154135714Y-120504342D01*
X154135714Y-120504342D02*
X154088095Y-120599580D01*
X154088095Y-120599580D02*
X154040476Y-120647200D01*
X154040476Y-120647200D02*
X153945238Y-120694819D01*
X153945238Y-120694819D02*
X153707143Y-120694819D01*
X153707143Y-120694819D02*
X153611905Y-120647200D01*
X153611905Y-120647200D02*
X153564286Y-120599580D01*
X163983333Y-95199580D02*
X163935714Y-95247200D01*
X163935714Y-95247200D02*
X163792857Y-95294819D01*
X163792857Y-95294819D02*
X163697619Y-95294819D01*
X163697619Y-95294819D02*
X163554762Y-95247200D01*
X163554762Y-95247200D02*
X163459524Y-95151961D01*
X163459524Y-95151961D02*
X163411905Y-95056723D01*
X163411905Y-95056723D02*
X163364286Y-94866247D01*
X163364286Y-94866247D02*
X163364286Y-94723390D01*
X163364286Y-94723390D02*
X163411905Y-94532914D01*
X163411905Y-94532914D02*
X163459524Y-94437676D01*
X163459524Y-94437676D02*
X163554762Y-94342438D01*
X163554762Y-94342438D02*
X163697619Y-94294819D01*
X163697619Y-94294819D02*
X163792857Y-94294819D01*
X163792857Y-94294819D02*
X163935714Y-94342438D01*
X163935714Y-94342438D02*
X163983333Y-94390057D01*
X164316667Y-94294819D02*
X164983333Y-94294819D01*
X164983333Y-94294819D02*
X164554762Y-95294819D01*
X168061666Y-76734819D02*
X168061666Y-77449104D01*
X168061666Y-77449104D02*
X168014047Y-77591961D01*
X168014047Y-77591961D02*
X167918809Y-77687200D01*
X167918809Y-77687200D02*
X167775952Y-77734819D01*
X167775952Y-77734819D02*
X167680714Y-77734819D01*
X169061666Y-77734819D02*
X168490238Y-77734819D01*
X168775952Y-77734819D02*
X168775952Y-76734819D01*
X168775952Y-76734819D02*
X168680714Y-76877676D01*
X168680714Y-76877676D02*
X168585476Y-76972914D01*
X168585476Y-76972914D02*
X168490238Y-77020533D01*
X157787142Y-82499580D02*
X157739523Y-82547200D01*
X157739523Y-82547200D02*
X157596666Y-82594819D01*
X157596666Y-82594819D02*
X157501428Y-82594819D01*
X157501428Y-82594819D02*
X157358571Y-82547200D01*
X157358571Y-82547200D02*
X157263333Y-82451961D01*
X157263333Y-82451961D02*
X157215714Y-82356723D01*
X157215714Y-82356723D02*
X157168095Y-82166247D01*
X157168095Y-82166247D02*
X157168095Y-82023390D01*
X157168095Y-82023390D02*
X157215714Y-81832914D01*
X157215714Y-81832914D02*
X157263333Y-81737676D01*
X157263333Y-81737676D02*
X157358571Y-81642438D01*
X157358571Y-81642438D02*
X157501428Y-81594819D01*
X157501428Y-81594819D02*
X157596666Y-81594819D01*
X157596666Y-81594819D02*
X157739523Y-81642438D01*
X157739523Y-81642438D02*
X157787142Y-81690057D01*
X158739523Y-82594819D02*
X158168095Y-82594819D01*
X158453809Y-82594819D02*
X158453809Y-81594819D01*
X158453809Y-81594819D02*
X158358571Y-81737676D01*
X158358571Y-81737676D02*
X158263333Y-81832914D01*
X158263333Y-81832914D02*
X158168095Y-81880533D01*
X159358571Y-81594819D02*
X159453809Y-81594819D01*
X159453809Y-81594819D02*
X159549047Y-81642438D01*
X159549047Y-81642438D02*
X159596666Y-81690057D01*
X159596666Y-81690057D02*
X159644285Y-81785295D01*
X159644285Y-81785295D02*
X159691904Y-81975771D01*
X159691904Y-81975771D02*
X159691904Y-82213866D01*
X159691904Y-82213866D02*
X159644285Y-82404342D01*
X159644285Y-82404342D02*
X159596666Y-82499580D01*
X159596666Y-82499580D02*
X159549047Y-82547200D01*
X159549047Y-82547200D02*
X159453809Y-82594819D01*
X159453809Y-82594819D02*
X159358571Y-82594819D01*
X159358571Y-82594819D02*
X159263333Y-82547200D01*
X159263333Y-82547200D02*
X159215714Y-82499580D01*
X159215714Y-82499580D02*
X159168095Y-82404342D01*
X159168095Y-82404342D02*
X159120476Y-82213866D01*
X159120476Y-82213866D02*
X159120476Y-81975771D01*
X159120476Y-81975771D02*
X159168095Y-81785295D01*
X159168095Y-81785295D02*
X159215714Y-81690057D01*
X159215714Y-81690057D02*
X159263333Y-81642438D01*
X159263333Y-81642438D02*
X159358571Y-81594819D01*
X163343333Y-79959580D02*
X163295714Y-80007200D01*
X163295714Y-80007200D02*
X163152857Y-80054819D01*
X163152857Y-80054819D02*
X163057619Y-80054819D01*
X163057619Y-80054819D02*
X162914762Y-80007200D01*
X162914762Y-80007200D02*
X162819524Y-79911961D01*
X162819524Y-79911961D02*
X162771905Y-79816723D01*
X162771905Y-79816723D02*
X162724286Y-79626247D01*
X162724286Y-79626247D02*
X162724286Y-79483390D01*
X162724286Y-79483390D02*
X162771905Y-79292914D01*
X162771905Y-79292914D02*
X162819524Y-79197676D01*
X162819524Y-79197676D02*
X162914762Y-79102438D01*
X162914762Y-79102438D02*
X163057619Y-79054819D01*
X163057619Y-79054819D02*
X163152857Y-79054819D01*
X163152857Y-79054819D02*
X163295714Y-79102438D01*
X163295714Y-79102438D02*
X163343333Y-79150057D01*
X163819524Y-80054819D02*
X164010000Y-80054819D01*
X164010000Y-80054819D02*
X164105238Y-80007200D01*
X164105238Y-80007200D02*
X164152857Y-79959580D01*
X164152857Y-79959580D02*
X164248095Y-79816723D01*
X164248095Y-79816723D02*
X164295714Y-79626247D01*
X164295714Y-79626247D02*
X164295714Y-79245295D01*
X164295714Y-79245295D02*
X164248095Y-79150057D01*
X164248095Y-79150057D02*
X164200476Y-79102438D01*
X164200476Y-79102438D02*
X164105238Y-79054819D01*
X164105238Y-79054819D02*
X163914762Y-79054819D01*
X163914762Y-79054819D02*
X163819524Y-79102438D01*
X163819524Y-79102438D02*
X163771905Y-79150057D01*
X163771905Y-79150057D02*
X163724286Y-79245295D01*
X163724286Y-79245295D02*
X163724286Y-79483390D01*
X163724286Y-79483390D02*
X163771905Y-79578628D01*
X163771905Y-79578628D02*
X163819524Y-79626247D01*
X163819524Y-79626247D02*
X163914762Y-79673866D01*
X163914762Y-79673866D02*
X164105238Y-79673866D01*
X164105238Y-79673866D02*
X164200476Y-79626247D01*
X164200476Y-79626247D02*
X164248095Y-79578628D01*
X164248095Y-79578628D02*
X164295714Y-79483390D01*
X191230476Y-154017200D02*
X191373333Y-154064819D01*
X191373333Y-154064819D02*
X191611428Y-154064819D01*
X191611428Y-154064819D02*
X191706666Y-154017200D01*
X191706666Y-154017200D02*
X191754285Y-153969580D01*
X191754285Y-153969580D02*
X191801904Y-153874342D01*
X191801904Y-153874342D02*
X191801904Y-153779104D01*
X191801904Y-153779104D02*
X191754285Y-153683866D01*
X191754285Y-153683866D02*
X191706666Y-153636247D01*
X191706666Y-153636247D02*
X191611428Y-153588628D01*
X191611428Y-153588628D02*
X191420952Y-153541009D01*
X191420952Y-153541009D02*
X191325714Y-153493390D01*
X191325714Y-153493390D02*
X191278095Y-153445771D01*
X191278095Y-153445771D02*
X191230476Y-153350533D01*
X191230476Y-153350533D02*
X191230476Y-153255295D01*
X191230476Y-153255295D02*
X191278095Y-153160057D01*
X191278095Y-153160057D02*
X191325714Y-153112438D01*
X191325714Y-153112438D02*
X191420952Y-153064819D01*
X191420952Y-153064819D02*
X191659047Y-153064819D01*
X191659047Y-153064819D02*
X191801904Y-153112438D01*
X192135238Y-153064819D02*
X192373333Y-154064819D01*
X192373333Y-154064819D02*
X192563809Y-153350533D01*
X192563809Y-153350533D02*
X192754285Y-154064819D01*
X192754285Y-154064819D02*
X192992381Y-153064819D01*
X193897142Y-154064819D02*
X193325714Y-154064819D01*
X193611428Y-154064819D02*
X193611428Y-153064819D01*
X193611428Y-153064819D02*
X193516190Y-153207676D01*
X193516190Y-153207676D02*
X193420952Y-153302914D01*
X193420952Y-153302914D02*
X193325714Y-153350533D01*
X194754285Y-153398152D02*
X194754285Y-154064819D01*
X194516190Y-153017200D02*
X194278095Y-153731485D01*
X194278095Y-153731485D02*
X194897142Y-153731485D01*
X134916667Y-137907200D02*
X135059524Y-137954819D01*
X135059524Y-137954819D02*
X135297619Y-137954819D01*
X135297619Y-137954819D02*
X135392857Y-137907200D01*
X135392857Y-137907200D02*
X135440476Y-137859580D01*
X135440476Y-137859580D02*
X135488095Y-137764342D01*
X135488095Y-137764342D02*
X135488095Y-137669104D01*
X135488095Y-137669104D02*
X135440476Y-137573866D01*
X135440476Y-137573866D02*
X135392857Y-137526247D01*
X135392857Y-137526247D02*
X135297619Y-137478628D01*
X135297619Y-137478628D02*
X135107143Y-137431009D01*
X135107143Y-137431009D02*
X135011905Y-137383390D01*
X135011905Y-137383390D02*
X134964286Y-137335771D01*
X134964286Y-137335771D02*
X134916667Y-137240533D01*
X134916667Y-137240533D02*
X134916667Y-137145295D01*
X134916667Y-137145295D02*
X134964286Y-137050057D01*
X134964286Y-137050057D02*
X135011905Y-137002438D01*
X135011905Y-137002438D02*
X135107143Y-136954819D01*
X135107143Y-136954819D02*
X135345238Y-136954819D01*
X135345238Y-136954819D02*
X135488095Y-137002438D01*
X135821429Y-136954819D02*
X136059524Y-137954819D01*
X136059524Y-137954819D02*
X136250000Y-137240533D01*
X136250000Y-137240533D02*
X136440476Y-137954819D01*
X136440476Y-137954819D02*
X136678572Y-136954819D01*
X136964286Y-136954819D02*
X137583333Y-136954819D01*
X137583333Y-136954819D02*
X137250000Y-137335771D01*
X137250000Y-137335771D02*
X137392857Y-137335771D01*
X137392857Y-137335771D02*
X137488095Y-137383390D01*
X137488095Y-137383390D02*
X137535714Y-137431009D01*
X137535714Y-137431009D02*
X137583333Y-137526247D01*
X137583333Y-137526247D02*
X137583333Y-137764342D01*
X137583333Y-137764342D02*
X137535714Y-137859580D01*
X137535714Y-137859580D02*
X137488095Y-137907200D01*
X137488095Y-137907200D02*
X137392857Y-137954819D01*
X137392857Y-137954819D02*
X137107143Y-137954819D01*
X137107143Y-137954819D02*
X137011905Y-137907200D01*
X137011905Y-137907200D02*
X136964286Y-137859580D01*
X161420833Y-130884819D02*
X161087500Y-130408628D01*
X160849405Y-130884819D02*
X160849405Y-129884819D01*
X160849405Y-129884819D02*
X161230357Y-129884819D01*
X161230357Y-129884819D02*
X161325595Y-129932438D01*
X161325595Y-129932438D02*
X161373214Y-129980057D01*
X161373214Y-129980057D02*
X161420833Y-130075295D01*
X161420833Y-130075295D02*
X161420833Y-130218152D01*
X161420833Y-130218152D02*
X161373214Y-130313390D01*
X161373214Y-130313390D02*
X161325595Y-130361009D01*
X161325595Y-130361009D02*
X161230357Y-130408628D01*
X161230357Y-130408628D02*
X160849405Y-130408628D01*
X162325595Y-129884819D02*
X161849405Y-129884819D01*
X161849405Y-129884819D02*
X161801786Y-130361009D01*
X161801786Y-130361009D02*
X161849405Y-130313390D01*
X161849405Y-130313390D02*
X161944643Y-130265771D01*
X161944643Y-130265771D02*
X162182738Y-130265771D01*
X162182738Y-130265771D02*
X162277976Y-130313390D01*
X162277976Y-130313390D02*
X162325595Y-130361009D01*
X162325595Y-130361009D02*
X162373214Y-130456247D01*
X162373214Y-130456247D02*
X162373214Y-130694342D01*
X162373214Y-130694342D02*
X162325595Y-130789580D01*
X162325595Y-130789580D02*
X162277976Y-130837200D01*
X162277976Y-130837200D02*
X162182738Y-130884819D01*
X162182738Y-130884819D02*
X161944643Y-130884819D01*
X161944643Y-130884819D02*
X161849405Y-130837200D01*
X161849405Y-130837200D02*
X161801786Y-130789580D01*
X198414819Y-141725238D02*
X197938628Y-142058571D01*
X198414819Y-142296666D02*
X197414819Y-142296666D01*
X197414819Y-142296666D02*
X197414819Y-141915714D01*
X197414819Y-141915714D02*
X197462438Y-141820476D01*
X197462438Y-141820476D02*
X197510057Y-141772857D01*
X197510057Y-141772857D02*
X197605295Y-141725238D01*
X197605295Y-141725238D02*
X197748152Y-141725238D01*
X197748152Y-141725238D02*
X197843390Y-141772857D01*
X197843390Y-141772857D02*
X197891009Y-141820476D01*
X197891009Y-141820476D02*
X197938628Y-141915714D01*
X197938628Y-141915714D02*
X197938628Y-142296666D01*
X197414819Y-141439523D02*
X198414819Y-141106190D01*
X198414819Y-141106190D02*
X197414819Y-140772857D01*
X197414819Y-140534761D02*
X197414819Y-139915714D01*
X197414819Y-139915714D02*
X197795771Y-140249047D01*
X197795771Y-140249047D02*
X197795771Y-140106190D01*
X197795771Y-140106190D02*
X197843390Y-140010952D01*
X197843390Y-140010952D02*
X197891009Y-139963333D01*
X197891009Y-139963333D02*
X197986247Y-139915714D01*
X197986247Y-139915714D02*
X198224342Y-139915714D01*
X198224342Y-139915714D02*
X198319580Y-139963333D01*
X198319580Y-139963333D02*
X198367200Y-140010952D01*
X198367200Y-140010952D02*
X198414819Y-140106190D01*
X198414819Y-140106190D02*
X198414819Y-140391904D01*
X198414819Y-140391904D02*
X198367200Y-140487142D01*
X198367200Y-140487142D02*
X198319580Y-140534761D01*
X194916667Y-83907200D02*
X195059524Y-83954819D01*
X195059524Y-83954819D02*
X195297619Y-83954819D01*
X195297619Y-83954819D02*
X195392857Y-83907200D01*
X195392857Y-83907200D02*
X195440476Y-83859580D01*
X195440476Y-83859580D02*
X195488095Y-83764342D01*
X195488095Y-83764342D02*
X195488095Y-83669104D01*
X195488095Y-83669104D02*
X195440476Y-83573866D01*
X195440476Y-83573866D02*
X195392857Y-83526247D01*
X195392857Y-83526247D02*
X195297619Y-83478628D01*
X195297619Y-83478628D02*
X195107143Y-83431009D01*
X195107143Y-83431009D02*
X195011905Y-83383390D01*
X195011905Y-83383390D02*
X194964286Y-83335771D01*
X194964286Y-83335771D02*
X194916667Y-83240533D01*
X194916667Y-83240533D02*
X194916667Y-83145295D01*
X194916667Y-83145295D02*
X194964286Y-83050057D01*
X194964286Y-83050057D02*
X195011905Y-83002438D01*
X195011905Y-83002438D02*
X195107143Y-82954819D01*
X195107143Y-82954819D02*
X195345238Y-82954819D01*
X195345238Y-82954819D02*
X195488095Y-83002438D01*
X195821429Y-82954819D02*
X196059524Y-83954819D01*
X196059524Y-83954819D02*
X196250000Y-83240533D01*
X196250000Y-83240533D02*
X196440476Y-83954819D01*
X196440476Y-83954819D02*
X196678572Y-82954819D01*
X197107143Y-83954819D02*
X197297619Y-83954819D01*
X197297619Y-83954819D02*
X197392857Y-83907200D01*
X197392857Y-83907200D02*
X197440476Y-83859580D01*
X197440476Y-83859580D02*
X197535714Y-83716723D01*
X197535714Y-83716723D02*
X197583333Y-83526247D01*
X197583333Y-83526247D02*
X197583333Y-83145295D01*
X197583333Y-83145295D02*
X197535714Y-83050057D01*
X197535714Y-83050057D02*
X197488095Y-83002438D01*
X197488095Y-83002438D02*
X197392857Y-82954819D01*
X197392857Y-82954819D02*
X197202381Y-82954819D01*
X197202381Y-82954819D02*
X197107143Y-83002438D01*
X197107143Y-83002438D02*
X197059524Y-83050057D01*
X197059524Y-83050057D02*
X197011905Y-83145295D01*
X197011905Y-83145295D02*
X197011905Y-83383390D01*
X197011905Y-83383390D02*
X197059524Y-83478628D01*
X197059524Y-83478628D02*
X197107143Y-83526247D01*
X197107143Y-83526247D02*
X197202381Y-83573866D01*
X197202381Y-83573866D02*
X197392857Y-83573866D01*
X197392857Y-83573866D02*
X197488095Y-83526247D01*
X197488095Y-83526247D02*
X197535714Y-83478628D01*
X197535714Y-83478628D02*
X197583333Y-83383390D01*
X172553333Y-89354819D02*
X172220000Y-88878628D01*
X171981905Y-89354819D02*
X171981905Y-88354819D01*
X171981905Y-88354819D02*
X172362857Y-88354819D01*
X172362857Y-88354819D02*
X172458095Y-88402438D01*
X172458095Y-88402438D02*
X172505714Y-88450057D01*
X172505714Y-88450057D02*
X172553333Y-88545295D01*
X172553333Y-88545295D02*
X172553333Y-88688152D01*
X172553333Y-88688152D02*
X172505714Y-88783390D01*
X172505714Y-88783390D02*
X172458095Y-88831009D01*
X172458095Y-88831009D02*
X172362857Y-88878628D01*
X172362857Y-88878628D02*
X171981905Y-88878628D01*
X172886667Y-88354819D02*
X173505714Y-88354819D01*
X173505714Y-88354819D02*
X173172381Y-88735771D01*
X173172381Y-88735771D02*
X173315238Y-88735771D01*
X173315238Y-88735771D02*
X173410476Y-88783390D01*
X173410476Y-88783390D02*
X173458095Y-88831009D01*
X173458095Y-88831009D02*
X173505714Y-88926247D01*
X173505714Y-88926247D02*
X173505714Y-89164342D01*
X173505714Y-89164342D02*
X173458095Y-89259580D01*
X173458095Y-89259580D02*
X173410476Y-89307200D01*
X173410476Y-89307200D02*
X173315238Y-89354819D01*
X173315238Y-89354819D02*
X173029524Y-89354819D01*
X173029524Y-89354819D02*
X172934286Y-89307200D01*
X172934286Y-89307200D02*
X172886667Y-89259580D01*
X175093333Y-80084819D02*
X174760000Y-79608628D01*
X174521905Y-80084819D02*
X174521905Y-79084819D01*
X174521905Y-79084819D02*
X174902857Y-79084819D01*
X174902857Y-79084819D02*
X174998095Y-79132438D01*
X174998095Y-79132438D02*
X175045714Y-79180057D01*
X175045714Y-79180057D02*
X175093333Y-79275295D01*
X175093333Y-79275295D02*
X175093333Y-79418152D01*
X175093333Y-79418152D02*
X175045714Y-79513390D01*
X175045714Y-79513390D02*
X174998095Y-79561009D01*
X174998095Y-79561009D02*
X174902857Y-79608628D01*
X174902857Y-79608628D02*
X174521905Y-79608628D01*
X176045714Y-80084819D02*
X175474286Y-80084819D01*
X175760000Y-80084819D02*
X175760000Y-79084819D01*
X175760000Y-79084819D02*
X175664762Y-79227676D01*
X175664762Y-79227676D02*
X175569524Y-79322914D01*
X175569524Y-79322914D02*
X175474286Y-79370533D01*
X164933333Y-123759580D02*
X164885714Y-123807200D01*
X164885714Y-123807200D02*
X164742857Y-123854819D01*
X164742857Y-123854819D02*
X164647619Y-123854819D01*
X164647619Y-123854819D02*
X164504762Y-123807200D01*
X164504762Y-123807200D02*
X164409524Y-123711961D01*
X164409524Y-123711961D02*
X164361905Y-123616723D01*
X164361905Y-123616723D02*
X164314286Y-123426247D01*
X164314286Y-123426247D02*
X164314286Y-123283390D01*
X164314286Y-123283390D02*
X164361905Y-123092914D01*
X164361905Y-123092914D02*
X164409524Y-122997676D01*
X164409524Y-122997676D02*
X164504762Y-122902438D01*
X164504762Y-122902438D02*
X164647619Y-122854819D01*
X164647619Y-122854819D02*
X164742857Y-122854819D01*
X164742857Y-122854819D02*
X164885714Y-122902438D01*
X164885714Y-122902438D02*
X164933333Y-122950057D01*
X165266667Y-122854819D02*
X165885714Y-122854819D01*
X165885714Y-122854819D02*
X165552381Y-123235771D01*
X165552381Y-123235771D02*
X165695238Y-123235771D01*
X165695238Y-123235771D02*
X165790476Y-123283390D01*
X165790476Y-123283390D02*
X165838095Y-123331009D01*
X165838095Y-123331009D02*
X165885714Y-123426247D01*
X165885714Y-123426247D02*
X165885714Y-123664342D01*
X165885714Y-123664342D02*
X165838095Y-123759580D01*
X165838095Y-123759580D02*
X165790476Y-123807200D01*
X165790476Y-123807200D02*
X165695238Y-123854819D01*
X165695238Y-123854819D02*
X165409524Y-123854819D01*
X165409524Y-123854819D02*
X165314286Y-123807200D01*
X165314286Y-123807200D02*
X165266667Y-123759580D01*
X221526667Y-111407200D02*
X221669524Y-111454819D01*
X221669524Y-111454819D02*
X221907619Y-111454819D01*
X221907619Y-111454819D02*
X222002857Y-111407200D01*
X222002857Y-111407200D02*
X222050476Y-111359580D01*
X222050476Y-111359580D02*
X222098095Y-111264342D01*
X222098095Y-111264342D02*
X222098095Y-111169104D01*
X222098095Y-111169104D02*
X222050476Y-111073866D01*
X222050476Y-111073866D02*
X222002857Y-111026247D01*
X222002857Y-111026247D02*
X221907619Y-110978628D01*
X221907619Y-110978628D02*
X221717143Y-110931009D01*
X221717143Y-110931009D02*
X221621905Y-110883390D01*
X221621905Y-110883390D02*
X221574286Y-110835771D01*
X221574286Y-110835771D02*
X221526667Y-110740533D01*
X221526667Y-110740533D02*
X221526667Y-110645295D01*
X221526667Y-110645295D02*
X221574286Y-110550057D01*
X221574286Y-110550057D02*
X221621905Y-110502438D01*
X221621905Y-110502438D02*
X221717143Y-110454819D01*
X221717143Y-110454819D02*
X221955238Y-110454819D01*
X221955238Y-110454819D02*
X222098095Y-110502438D01*
X222431429Y-110454819D02*
X222669524Y-111454819D01*
X222669524Y-111454819D02*
X222860000Y-110740533D01*
X222860000Y-110740533D02*
X223050476Y-111454819D01*
X223050476Y-111454819D02*
X223288572Y-110454819D01*
X224145714Y-110454819D02*
X223669524Y-110454819D01*
X223669524Y-110454819D02*
X223621905Y-110931009D01*
X223621905Y-110931009D02*
X223669524Y-110883390D01*
X223669524Y-110883390D02*
X223764762Y-110835771D01*
X223764762Y-110835771D02*
X224002857Y-110835771D01*
X224002857Y-110835771D02*
X224098095Y-110883390D01*
X224098095Y-110883390D02*
X224145714Y-110931009D01*
X224145714Y-110931009D02*
X224193333Y-111026247D01*
X224193333Y-111026247D02*
X224193333Y-111264342D01*
X224193333Y-111264342D02*
X224145714Y-111359580D01*
X224145714Y-111359580D02*
X224098095Y-111407200D01*
X224098095Y-111407200D02*
X224002857Y-111454819D01*
X224002857Y-111454819D02*
X223764762Y-111454819D01*
X223764762Y-111454819D02*
X223669524Y-111407200D01*
X223669524Y-111407200D02*
X223621905Y-111359580D01*
X158263333Y-92659580D02*
X158215714Y-92707200D01*
X158215714Y-92707200D02*
X158072857Y-92754819D01*
X158072857Y-92754819D02*
X157977619Y-92754819D01*
X157977619Y-92754819D02*
X157834762Y-92707200D01*
X157834762Y-92707200D02*
X157739524Y-92611961D01*
X157739524Y-92611961D02*
X157691905Y-92516723D01*
X157691905Y-92516723D02*
X157644286Y-92326247D01*
X157644286Y-92326247D02*
X157644286Y-92183390D01*
X157644286Y-92183390D02*
X157691905Y-91992914D01*
X157691905Y-91992914D02*
X157739524Y-91897676D01*
X157739524Y-91897676D02*
X157834762Y-91802438D01*
X157834762Y-91802438D02*
X157977619Y-91754819D01*
X157977619Y-91754819D02*
X158072857Y-91754819D01*
X158072857Y-91754819D02*
X158215714Y-91802438D01*
X158215714Y-91802438D02*
X158263333Y-91850057D01*
X158834762Y-92183390D02*
X158739524Y-92135771D01*
X158739524Y-92135771D02*
X158691905Y-92088152D01*
X158691905Y-92088152D02*
X158644286Y-91992914D01*
X158644286Y-91992914D02*
X158644286Y-91945295D01*
X158644286Y-91945295D02*
X158691905Y-91850057D01*
X158691905Y-91850057D02*
X158739524Y-91802438D01*
X158739524Y-91802438D02*
X158834762Y-91754819D01*
X158834762Y-91754819D02*
X159025238Y-91754819D01*
X159025238Y-91754819D02*
X159120476Y-91802438D01*
X159120476Y-91802438D02*
X159168095Y-91850057D01*
X159168095Y-91850057D02*
X159215714Y-91945295D01*
X159215714Y-91945295D02*
X159215714Y-91992914D01*
X159215714Y-91992914D02*
X159168095Y-92088152D01*
X159168095Y-92088152D02*
X159120476Y-92135771D01*
X159120476Y-92135771D02*
X159025238Y-92183390D01*
X159025238Y-92183390D02*
X158834762Y-92183390D01*
X158834762Y-92183390D02*
X158739524Y-92231009D01*
X158739524Y-92231009D02*
X158691905Y-92278628D01*
X158691905Y-92278628D02*
X158644286Y-92373866D01*
X158644286Y-92373866D02*
X158644286Y-92564342D01*
X158644286Y-92564342D02*
X158691905Y-92659580D01*
X158691905Y-92659580D02*
X158739524Y-92707200D01*
X158739524Y-92707200D02*
X158834762Y-92754819D01*
X158834762Y-92754819D02*
X159025238Y-92754819D01*
X159025238Y-92754819D02*
X159120476Y-92707200D01*
X159120476Y-92707200D02*
X159168095Y-92659580D01*
X159168095Y-92659580D02*
X159215714Y-92564342D01*
X159215714Y-92564342D02*
X159215714Y-92373866D01*
X159215714Y-92373866D02*
X159168095Y-92278628D01*
X159168095Y-92278628D02*
X159120476Y-92231009D01*
X159120476Y-92231009D02*
X159025238Y-92183390D01*
X109240476Y-117787200D02*
X109383333Y-117834819D01*
X109383333Y-117834819D02*
X109621428Y-117834819D01*
X109621428Y-117834819D02*
X109716666Y-117787200D01*
X109716666Y-117787200D02*
X109764285Y-117739580D01*
X109764285Y-117739580D02*
X109811904Y-117644342D01*
X109811904Y-117644342D02*
X109811904Y-117549104D01*
X109811904Y-117549104D02*
X109764285Y-117453866D01*
X109764285Y-117453866D02*
X109716666Y-117406247D01*
X109716666Y-117406247D02*
X109621428Y-117358628D01*
X109621428Y-117358628D02*
X109430952Y-117311009D01*
X109430952Y-117311009D02*
X109335714Y-117263390D01*
X109335714Y-117263390D02*
X109288095Y-117215771D01*
X109288095Y-117215771D02*
X109240476Y-117120533D01*
X109240476Y-117120533D02*
X109240476Y-117025295D01*
X109240476Y-117025295D02*
X109288095Y-116930057D01*
X109288095Y-116930057D02*
X109335714Y-116882438D01*
X109335714Y-116882438D02*
X109430952Y-116834819D01*
X109430952Y-116834819D02*
X109669047Y-116834819D01*
X109669047Y-116834819D02*
X109811904Y-116882438D01*
X110145238Y-116834819D02*
X110383333Y-117834819D01*
X110383333Y-117834819D02*
X110573809Y-117120533D01*
X110573809Y-117120533D02*
X110764285Y-117834819D01*
X110764285Y-117834819D02*
X111002381Y-116834819D01*
X111907142Y-117834819D02*
X111335714Y-117834819D01*
X111621428Y-117834819D02*
X111621428Y-116834819D01*
X111621428Y-116834819D02*
X111526190Y-116977676D01*
X111526190Y-116977676D02*
X111430952Y-117072914D01*
X111430952Y-117072914D02*
X111335714Y-117120533D01*
X112240476Y-116834819D02*
X112859523Y-116834819D01*
X112859523Y-116834819D02*
X112526190Y-117215771D01*
X112526190Y-117215771D02*
X112669047Y-117215771D01*
X112669047Y-117215771D02*
X112764285Y-117263390D01*
X112764285Y-117263390D02*
X112811904Y-117311009D01*
X112811904Y-117311009D02*
X112859523Y-117406247D01*
X112859523Y-117406247D02*
X112859523Y-117644342D01*
X112859523Y-117644342D02*
X112811904Y-117739580D01*
X112811904Y-117739580D02*
X112764285Y-117787200D01*
X112764285Y-117787200D02*
X112669047Y-117834819D01*
X112669047Y-117834819D02*
X112383333Y-117834819D01*
X112383333Y-117834819D02*
X112288095Y-117787200D01*
X112288095Y-117787200D02*
X112240476Y-117739580D01*
X134916667Y-153907200D02*
X135059524Y-153954819D01*
X135059524Y-153954819D02*
X135297619Y-153954819D01*
X135297619Y-153954819D02*
X135392857Y-153907200D01*
X135392857Y-153907200D02*
X135440476Y-153859580D01*
X135440476Y-153859580D02*
X135488095Y-153764342D01*
X135488095Y-153764342D02*
X135488095Y-153669104D01*
X135488095Y-153669104D02*
X135440476Y-153573866D01*
X135440476Y-153573866D02*
X135392857Y-153526247D01*
X135392857Y-153526247D02*
X135297619Y-153478628D01*
X135297619Y-153478628D02*
X135107143Y-153431009D01*
X135107143Y-153431009D02*
X135011905Y-153383390D01*
X135011905Y-153383390D02*
X134964286Y-153335771D01*
X134964286Y-153335771D02*
X134916667Y-153240533D01*
X134916667Y-153240533D02*
X134916667Y-153145295D01*
X134916667Y-153145295D02*
X134964286Y-153050057D01*
X134964286Y-153050057D02*
X135011905Y-153002438D01*
X135011905Y-153002438D02*
X135107143Y-152954819D01*
X135107143Y-152954819D02*
X135345238Y-152954819D01*
X135345238Y-152954819D02*
X135488095Y-153002438D01*
X135821429Y-152954819D02*
X136059524Y-153954819D01*
X136059524Y-153954819D02*
X136250000Y-153240533D01*
X136250000Y-153240533D02*
X136440476Y-153954819D01*
X136440476Y-153954819D02*
X136678572Y-152954819D01*
X137011905Y-153050057D02*
X137059524Y-153002438D01*
X137059524Y-153002438D02*
X137154762Y-152954819D01*
X137154762Y-152954819D02*
X137392857Y-152954819D01*
X137392857Y-152954819D02*
X137488095Y-153002438D01*
X137488095Y-153002438D02*
X137535714Y-153050057D01*
X137535714Y-153050057D02*
X137583333Y-153145295D01*
X137583333Y-153145295D02*
X137583333Y-153240533D01*
X137583333Y-153240533D02*
X137535714Y-153383390D01*
X137535714Y-153383390D02*
X136964286Y-153954819D01*
X136964286Y-153954819D02*
X137583333Y-153954819D01*
X155685833Y-77544819D02*
X155352500Y-77068628D01*
X155114405Y-77544819D02*
X155114405Y-76544819D01*
X155114405Y-76544819D02*
X155495357Y-76544819D01*
X155495357Y-76544819D02*
X155590595Y-76592438D01*
X155590595Y-76592438D02*
X155638214Y-76640057D01*
X155638214Y-76640057D02*
X155685833Y-76735295D01*
X155685833Y-76735295D02*
X155685833Y-76878152D01*
X155685833Y-76878152D02*
X155638214Y-76973390D01*
X155638214Y-76973390D02*
X155590595Y-77021009D01*
X155590595Y-77021009D02*
X155495357Y-77068628D01*
X155495357Y-77068628D02*
X155114405Y-77068628D01*
X156066786Y-76640057D02*
X156114405Y-76592438D01*
X156114405Y-76592438D02*
X156209643Y-76544819D01*
X156209643Y-76544819D02*
X156447738Y-76544819D01*
X156447738Y-76544819D02*
X156542976Y-76592438D01*
X156542976Y-76592438D02*
X156590595Y-76640057D01*
X156590595Y-76640057D02*
X156638214Y-76735295D01*
X156638214Y-76735295D02*
X156638214Y-76830533D01*
X156638214Y-76830533D02*
X156590595Y-76973390D01*
X156590595Y-76973390D02*
X156019167Y-77544819D01*
X156019167Y-77544819D02*
X156638214Y-77544819D01*
%TO.C,SW4*%
D11*
X130250000Y-150500000D02*
X130250000Y-149000000D01*
X129000000Y-146500000D02*
X124500000Y-146500000D01*
X124500000Y-153000000D02*
X129000000Y-153000000D01*
X123250000Y-149000000D02*
X123250000Y-150500000D01*
%TO.C,C6*%
X176588748Y-116105000D02*
X177111252Y-116105000D01*
X176588748Y-117575000D02*
X177111252Y-117575000D01*
%TO.C,RV2*%
X118400000Y-109710000D02*
X119780000Y-109710000D01*
X118400000Y-111090000D02*
X118400000Y-109710000D01*
X118400000Y-112360000D02*
X118400000Y-117550000D01*
X118400000Y-112360000D02*
X121160000Y-112360000D01*
X118400000Y-117550000D02*
X121160000Y-117550000D01*
X121160000Y-112360000D02*
X121160000Y-117550000D01*
%TO.C,RV4*%
X200390000Y-145940000D02*
X201770000Y-145940000D01*
X200390000Y-147320000D02*
X200390000Y-145940000D01*
X200390000Y-148590000D02*
X200390000Y-153780000D01*
X200390000Y-148590000D02*
X203150000Y-148590000D01*
X200390000Y-153780000D02*
X203150000Y-153780000D01*
X203150000Y-148590000D02*
X203150000Y-153780000D01*
%TO.C,SW8*%
X200360000Y-114500000D02*
X200360000Y-116000000D01*
X201610000Y-118500000D02*
X206110000Y-118500000D01*
X206110000Y-112000000D02*
X201610000Y-112000000D01*
X207360000Y-116000000D02*
X207360000Y-114500000D01*
%TO.C,SW10*%
X192750000Y-78000000D02*
X192750000Y-79500000D01*
X194000000Y-82000000D02*
X198500000Y-82000000D01*
X198500000Y-75500000D02*
X194000000Y-75500000D01*
X199750000Y-79500000D02*
X199750000Y-78000000D01*
%TO.C,C4*%
X157288748Y-131345000D02*
X157811252Y-131345000D01*
X157288748Y-132815000D02*
X157811252Y-132815000D01*
%TO.C,U1*%
X156727500Y-104990000D02*
X157302500Y-104990000D01*
X156727500Y-105565000D02*
X156727500Y-104990000D01*
X156727500Y-115210000D02*
X156727500Y-114635000D01*
X157302500Y-115210000D02*
X156727500Y-115210000D01*
X166372500Y-104990000D02*
X166947500Y-104990000D01*
X166947500Y-104990000D02*
X166947500Y-105565000D01*
X166947500Y-114635000D02*
X166947500Y-115210000D01*
X166947500Y-115210000D02*
X166372500Y-115210000D01*
X156087500Y-105560000D02*
X155747500Y-105090000D01*
X156427500Y-105090000D01*
X156087500Y-105560000D01*
G36*
X156087500Y-105560000D02*
G01*
X155747500Y-105090000D01*
X156427500Y-105090000D01*
X156087500Y-105560000D01*
G37*
%TO.C,C1*%
X151188748Y-108765000D02*
X151711252Y-108765000D01*
X151188748Y-110235000D02*
X151711252Y-110235000D01*
%TO.C,SW11*%
X112750000Y-87000000D02*
X112750000Y-88500000D01*
X114000000Y-91000000D02*
X118500000Y-91000000D01*
X118500000Y-84500000D02*
X114000000Y-84500000D01*
X119750000Y-88500000D02*
X119750000Y-87000000D01*
%TO.C,RV1*%
X107130000Y-106280000D02*
X107130000Y-104900000D01*
X108510000Y-106280000D02*
X107130000Y-106280000D01*
X109780000Y-103520000D02*
X114970000Y-103520000D01*
X109780000Y-106280000D02*
X109780000Y-103520000D01*
X109780000Y-106280000D02*
X114970000Y-106280000D01*
X114970000Y-106280000D02*
X114970000Y-103520000D01*
%TO.C,R6*%
X170865436Y-98325000D02*
X171319564Y-98325000D01*
X170865436Y-99795000D02*
X171319564Y-99795000D01*
%TO.C,C2*%
X157748748Y-124345000D02*
X158271252Y-124345000D01*
X157748748Y-125815000D02*
X158271252Y-125815000D01*
%TO.C,SW12*%
X112750000Y-78000000D02*
X112750000Y-79500000D01*
X114000000Y-82000000D02*
X118500000Y-82000000D01*
X118500000Y-75500000D02*
X114000000Y-75500000D01*
X119750000Y-79500000D02*
X119750000Y-78000000D01*
%TO.C,SW1*%
X142250000Y-149000000D02*
X142250000Y-150500000D01*
X143500000Y-153000000D02*
X148000000Y-153000000D01*
X148000000Y-146500000D02*
X143500000Y-146500000D01*
X149250000Y-150500000D02*
X149250000Y-149000000D01*
%TO.C,SW7*%
X209860000Y-106500000D02*
X209860000Y-108000000D01*
X211110000Y-110500000D02*
X215610000Y-110500000D01*
X215610000Y-104000000D02*
X211110000Y-104000000D01*
X216860000Y-108000000D02*
X216860000Y-106500000D01*
%TO.C,J2*%
X110380000Y-133240000D02*
X111760000Y-133240000D01*
X110380000Y-134620000D02*
X110380000Y-133240000D01*
X110380000Y-135890000D02*
X110380000Y-141080000D01*
X110380000Y-135890000D02*
X113030000Y-135890000D01*
X110380000Y-141080000D02*
X115680000Y-141080000D01*
X113030000Y-133240000D02*
X115680000Y-133240000D01*
X113030000Y-135890000D02*
X113030000Y-133240000D01*
X115680000Y-133240000D02*
X115680000Y-141080000D01*
%TO.C,Y1*%
X163180000Y-118520000D02*
X159060000Y-118520000D01*
X163180000Y-121940000D02*
X163180000Y-118520000D01*
%TO.C,SW6*%
X209860000Y-122500000D02*
X209860000Y-124000000D01*
X211110000Y-126500000D02*
X215610000Y-126500000D01*
X215610000Y-120000000D02*
X211110000Y-120000000D01*
X216860000Y-124000000D02*
X216860000Y-122500000D01*
%TO.C,R4*%
X169494564Y-85625000D02*
X169040436Y-85625000D01*
X169494564Y-87095000D02*
X169040436Y-87095000D01*
%TO.C,C5*%
X153088748Y-121185000D02*
X153611252Y-121185000D01*
X153088748Y-122655000D02*
X153611252Y-122655000D01*
%TO.C,C7*%
X163888748Y-95785000D02*
X164411252Y-95785000D01*
X163888748Y-97255000D02*
X164411252Y-97255000D01*
%TO.C,J1*%
X163800000Y-69480000D02*
X163800000Y-66750000D01*
X163800000Y-73080000D02*
X163800000Y-72180000D01*
X172870000Y-76160000D02*
X163920000Y-76160000D01*
X172990000Y-66750000D02*
X163800000Y-66750000D01*
X172990000Y-69480000D02*
X172990000Y-66750000D01*
X172990000Y-73080000D02*
X172990000Y-72180000D01*
%TO.C,C10*%
X158168748Y-83085000D02*
X158691252Y-83085000D01*
X158168748Y-84555000D02*
X158691252Y-84555000D01*
%TO.C,C9*%
X163248748Y-80545000D02*
X163771252Y-80545000D01*
X163248748Y-82015000D02*
X163771252Y-82015000D01*
%TO.C,SW14*%
X189540000Y-157110000D02*
X189540000Y-158610000D01*
X190790000Y-161110000D02*
X195290000Y-161110000D01*
X195290000Y-154610000D02*
X190790000Y-154610000D01*
X196540000Y-158610000D02*
X196540000Y-157110000D01*
%TO.C,SW3*%
X132750000Y-141000000D02*
X132750000Y-142500000D01*
X134000000Y-145000000D02*
X138500000Y-145000000D01*
X138500000Y-138500000D02*
X134000000Y-138500000D01*
X139750000Y-142500000D02*
X139750000Y-141000000D01*
%TO.C,R5*%
X161360436Y-131345000D02*
X161814564Y-131345000D01*
X161360436Y-132815000D02*
X161814564Y-132815000D01*
%TO.C,RV3*%
X189120000Y-139750000D02*
X189120000Y-142510000D01*
X194310000Y-139750000D02*
X189120000Y-139750000D01*
X194310000Y-139750000D02*
X194310000Y-142510000D01*
X194310000Y-142510000D02*
X189120000Y-142510000D01*
X195580000Y-139750000D02*
X196960000Y-139750000D01*
X196960000Y-139750000D02*
X196960000Y-141130000D01*
%TO.C,SW9*%
X192750000Y-87000000D02*
X192750000Y-88500000D01*
X194000000Y-91000000D02*
X198500000Y-91000000D01*
X198500000Y-84500000D02*
X194000000Y-84500000D01*
X199750000Y-88500000D02*
X199750000Y-87000000D01*
%TO.C,R3*%
X169494564Y-88165000D02*
X169040436Y-88165000D01*
X169494564Y-89635000D02*
X169040436Y-89635000D01*
%TO.C,R1*%
X175032936Y-80545000D02*
X175487064Y-80545000D01*
X175032936Y-82015000D02*
X175487064Y-82015000D01*
%TO.C,C3*%
X162248748Y-124345000D02*
X162771252Y-124345000D01*
X162248748Y-125815000D02*
X162771252Y-125815000D01*
%TO.C,SW5*%
X219360000Y-114500000D02*
X219360000Y-116000000D01*
X220610000Y-118500000D02*
X225110000Y-118500000D01*
X225110000Y-112000000D02*
X220610000Y-112000000D01*
X226360000Y-116000000D02*
X226360000Y-114500000D01*
%TO.C,C8*%
X158168748Y-93245000D02*
X158691252Y-93245000D01*
X158168748Y-94715000D02*
X158691252Y-94715000D01*
%TO.C,SW13*%
X107550000Y-120880000D02*
X107550000Y-122380000D01*
X108800000Y-124880000D02*
X113300000Y-124880000D01*
X113300000Y-118380000D02*
X108800000Y-118380000D01*
X114550000Y-122380000D02*
X114550000Y-120880000D01*
%TO.C,SW2*%
X132750000Y-157000000D02*
X132750000Y-158500000D01*
X134000000Y-161000000D02*
X138500000Y-161000000D01*
X138500000Y-154500000D02*
X134000000Y-154500000D01*
X139750000Y-158500000D02*
X139750000Y-157000000D01*
%TO.C,R2*%
X155625436Y-78005000D02*
X156079564Y-78005000D01*
X155625436Y-79475000D02*
X156079564Y-79475000D01*
%TD*%
%LPC*%
D12*
%TO.C,SW4*%
X130000000Y-152000000D03*
X123500000Y-152000000D03*
X130000000Y-147500000D03*
X123500000Y-147500000D03*
%TD*%
D13*
%TO.C,C6*%
X175900000Y-116840000D03*
X177800000Y-116840000D03*
%TD*%
D14*
%TO.C,RV2*%
X119780000Y-111090000D03*
D15*
X119780000Y-113630000D03*
X119780000Y-116170000D03*
%TD*%
D14*
%TO.C,RV4*%
X201770000Y-147320000D03*
D15*
X201770000Y-149860000D03*
X201770000Y-152400000D03*
%TD*%
D12*
%TO.C,SW8*%
X200610000Y-113000000D03*
X207110000Y-113000000D03*
X200610000Y-117500000D03*
X207110000Y-117500000D03*
%TD*%
%TO.C,SW10*%
X193000000Y-76500000D03*
X199500000Y-76500000D03*
X193000000Y-81000000D03*
X199500000Y-81000000D03*
%TD*%
D13*
%TO.C,C4*%
X156600000Y-132080000D03*
X158500000Y-132080000D03*
%TD*%
D16*
%TO.C,U1*%
X156175000Y-106100000D03*
X156175000Y-106900000D03*
X156175000Y-107700000D03*
X156175000Y-108500000D03*
X156175000Y-109300000D03*
X156175000Y-110100000D03*
X156175000Y-110900000D03*
X156175000Y-111700000D03*
X156175000Y-112500000D03*
X156175000Y-113300000D03*
X156175000Y-114100000D03*
D17*
X157837500Y-115762500D03*
X158637500Y-115762500D03*
X159437500Y-115762500D03*
X160237500Y-115762500D03*
X161037500Y-115762500D03*
X161837500Y-115762500D03*
X162637500Y-115762500D03*
X163437500Y-115762500D03*
X164237500Y-115762500D03*
X165037500Y-115762500D03*
X165837500Y-115762500D03*
D16*
X167500000Y-114100000D03*
X167500000Y-113300000D03*
X167500000Y-112500000D03*
X167500000Y-111700000D03*
X167500000Y-110900000D03*
X167500000Y-110100000D03*
X167500000Y-109300000D03*
X167500000Y-108500000D03*
X167500000Y-107700000D03*
X167500000Y-106900000D03*
X167500000Y-106100000D03*
D17*
X165837500Y-104437500D03*
X165037500Y-104437500D03*
X164237500Y-104437500D03*
X163437500Y-104437500D03*
X162637500Y-104437500D03*
X161837500Y-104437500D03*
X161037500Y-104437500D03*
X160237500Y-104437500D03*
X159437500Y-104437500D03*
X158637500Y-104437500D03*
X157837500Y-104437500D03*
%TD*%
D13*
%TO.C,C1*%
X150500000Y-109500000D03*
X152400000Y-109500000D03*
%TD*%
D12*
%TO.C,SW11*%
X113000000Y-85500000D03*
X119500000Y-85500000D03*
X113000000Y-90000000D03*
X119500000Y-90000000D03*
%TD*%
D14*
%TO.C,RV1*%
X108510000Y-104900000D03*
D15*
X111050000Y-104900000D03*
X113590000Y-104900000D03*
%TD*%
D18*
%TO.C,R6*%
X170180000Y-99060000D03*
X172005000Y-99060000D03*
%TD*%
D13*
%TO.C,C2*%
X157060000Y-125080000D03*
X158960000Y-125080000D03*
%TD*%
D12*
%TO.C,SW12*%
X113000000Y-76500000D03*
X119500000Y-76500000D03*
X113000000Y-81000000D03*
X119500000Y-81000000D03*
%TD*%
%TO.C,SW1*%
X142500000Y-147500000D03*
X149000000Y-147500000D03*
X142500000Y-152000000D03*
X149000000Y-152000000D03*
%TD*%
%TO.C,SW7*%
X210110000Y-105000000D03*
X216610000Y-105000000D03*
X210110000Y-109500000D03*
X216610000Y-109500000D03*
%TD*%
D14*
%TO.C,J2*%
X111760000Y-134620000D03*
D15*
X114300000Y-134620000D03*
X111760000Y-137160000D03*
X114300000Y-137160000D03*
X111760000Y-139700000D03*
X114300000Y-139700000D03*
%TD*%
D19*
%TO.C,Y1*%
X162220000Y-119380000D03*
X160020000Y-119380000D03*
X160020000Y-121080000D03*
X162220000Y-121080000D03*
%TD*%
D12*
%TO.C,SW6*%
X210110000Y-121000000D03*
X216610000Y-121000000D03*
X210110000Y-125500000D03*
X216610000Y-125500000D03*
%TD*%
D20*
%TO.C,R4*%
X170180000Y-86360000D03*
X168355000Y-86360000D03*
%TD*%
D13*
%TO.C,C5*%
X152400000Y-121920000D03*
X154300000Y-121920000D03*
%TD*%
%TO.C,C7*%
X163200000Y-96520000D03*
X165100000Y-96520000D03*
%TD*%
D21*
%TO.C,J1*%
X171370000Y-75480000D03*
X170520000Y-75480000D03*
X169670000Y-75480000D03*
X168820000Y-75480000D03*
X167970000Y-75480000D03*
X167120000Y-75480000D03*
X166270000Y-75480000D03*
X165420000Y-75480000D03*
X165420000Y-74130000D03*
X166270000Y-74130000D03*
X167120000Y-74130000D03*
X167970000Y-74130000D03*
X168820000Y-74130000D03*
X169670000Y-74130000D03*
X170520000Y-74130000D03*
X171370000Y-74130000D03*
D22*
X172720000Y-74500000D03*
D23*
X172720000Y-71120000D03*
D22*
X164070000Y-74500000D03*
D23*
X164070000Y-71120000D03*
%TD*%
D13*
%TO.C,C10*%
X157480000Y-83820000D03*
X159380000Y-83820000D03*
%TD*%
%TO.C,C9*%
X162560000Y-81280000D03*
X164460000Y-81280000D03*
%TD*%
D12*
%TO.C,SW14*%
X189790000Y-155610000D03*
X196290000Y-155610000D03*
X189790000Y-160110000D03*
X196290000Y-160110000D03*
%TD*%
%TO.C,SW3*%
X133000000Y-139500000D03*
X139500000Y-139500000D03*
X133000000Y-144000000D03*
X139500000Y-144000000D03*
%TD*%
D18*
%TO.C,R5*%
X160675000Y-132080000D03*
X162500000Y-132080000D03*
%TD*%
D14*
%TO.C,RV3*%
X195580000Y-141130000D03*
D15*
X193040000Y-141130000D03*
X190500000Y-141130000D03*
%TD*%
D12*
%TO.C,SW9*%
X193000000Y-85500000D03*
X199500000Y-85500000D03*
X193000000Y-90000000D03*
X199500000Y-90000000D03*
%TD*%
D20*
%TO.C,R3*%
X170180000Y-88900000D03*
X168355000Y-88900000D03*
%TD*%
D18*
%TO.C,R1*%
X174347500Y-81280000D03*
X176172500Y-81280000D03*
%TD*%
D13*
%TO.C,C3*%
X161560000Y-125080000D03*
X163460000Y-125080000D03*
%TD*%
D12*
%TO.C,SW5*%
X219610000Y-113000000D03*
X226110000Y-113000000D03*
X219610000Y-117500000D03*
X226110000Y-117500000D03*
%TD*%
D13*
%TO.C,C8*%
X157480000Y-93980000D03*
X159380000Y-93980000D03*
%TD*%
D12*
%TO.C,SW13*%
X107800000Y-119380000D03*
X114300000Y-119380000D03*
X107800000Y-123880000D03*
X114300000Y-123880000D03*
%TD*%
%TO.C,SW2*%
X133000000Y-155500000D03*
X139500000Y-155500000D03*
X133000000Y-160000000D03*
X139500000Y-160000000D03*
%TD*%
D18*
%TO.C,R2*%
X154940000Y-78740000D03*
X156765000Y-78740000D03*
%TD*%
%LPD*%
M02*
