%TF.GenerationSoftware,KiCad,Pcbnew,10.0.3*%
%TF.CreationDate,2026-08-18T16:08:35-04:00*%
%TF.ProjectId,Controller2,436f6e74-726f-46c6-9c65-72322e6b6963,rev?*%
%TF.SameCoordinates,Original*%
%TF.FileFunction,Paste,Top*%
%TF.FilePolarity,Positive*%
%FSLAX46Y46*%
G04 Gerber Fmt 4.6, Leading zero omitted, Abs format (unit mm)*
G04 Created by KiCad (PCBNEW 10.0.3) date 2026-08-18 16:08:35*
%MOMM*%
%LPD*%
G01*
G04 APERTURE LIST*
G04 Aperture macros list*
%AMRoundRect*
0 Rectangle with rounded corners*
0 $1 Rounding radius*
0 $2 $3 $4 $5 $6 $7 $8 $9 X,Y pos of 4 corners*
0 Add a 4 corners polygon primitive as box body*
4,1,4,$2,$3,$4,$5,$6,$7,$8,$9,$2,$3,0*
0 Add four circle primitives for the rounded corners*
1,1,$1+$1,$2,$3*
1,1,$1+$1,$4,$5*
1,1,$1+$1,$6,$7*
1,1,$1+$1,$8,$9*
0 Add four rect primitives between the rounded corners*
20,1,$1+$1,$2,$3,$4,$5,0*
20,1,$1+$1,$4,$5,$6,$7,0*
20,1,$1+$1,$6,$7,$8,$9,0*
20,1,$1+$1,$8,$9,$2,$3,0*%
G04 Aperture macros list end*
%ADD10RoundRect,0.250000X-0.250000X-0.475000X0.250000X-0.475000X0.250000X0.475000X-0.250000X0.475000X0*%
%ADD11RoundRect,0.137500X-0.600000X-0.137500X0.600000X-0.137500X0.600000X0.137500X-0.600000X0.137500X0*%
%ADD12RoundRect,0.137500X-0.137500X-0.600000X0.137500X-0.600000X0.137500X0.600000X-0.137500X0.600000X0*%
%ADD13RoundRect,0.250000X-0.262500X-0.450000X0.262500X-0.450000X0.262500X0.450000X-0.262500X0.450000X0*%
%ADD14RoundRect,0.250000X0.450000X0.350000X-0.450000X0.350000X-0.450000X-0.350000X0.450000X-0.350000X0*%
%ADD15RoundRect,0.250000X0.262500X0.450000X-0.262500X0.450000X-0.262500X-0.450000X0.262500X-0.450000X0*%
G04 APERTURE END LIST*
D10*
%TO.C,C6*%
X175900000Y-116840000D03*
X177800000Y-116840000D03*
%TD*%
%TO.C,C4*%
X156600000Y-132080000D03*
X158500000Y-132080000D03*
%TD*%
D11*
%TO.C,U1*%
X156175000Y-106100000D03*
X156175000Y-106900000D03*
X156175000Y-107700000D03*
X156175000Y-108500000D03*
X156175000Y-109300000D03*
X156175000Y-110100000D03*
X156175000Y-110900000D03*
X156175000Y-111700000D03*
X156175000Y-112500000D03*
X156175000Y-113300000D03*
X156175000Y-114100000D03*
D12*
X157837500Y-115762500D03*
X158637500Y-115762500D03*
X159437500Y-115762500D03*
X160237500Y-115762500D03*
X161037500Y-115762500D03*
X161837500Y-115762500D03*
X162637500Y-115762500D03*
X163437500Y-115762500D03*
X164237500Y-115762500D03*
X165037500Y-115762500D03*
X165837500Y-115762500D03*
D11*
X167500000Y-114100000D03*
X167500000Y-113300000D03*
X167500000Y-112500000D03*
X167500000Y-111700000D03*
X167500000Y-110900000D03*
X167500000Y-110100000D03*
X167500000Y-109300000D03*
X167500000Y-108500000D03*
X167500000Y-107700000D03*
X167500000Y-106900000D03*
X167500000Y-106100000D03*
D12*
X165837500Y-104437500D03*
X165037500Y-104437500D03*
X164237500Y-104437500D03*
X163437500Y-104437500D03*
X162637500Y-104437500D03*
X161837500Y-104437500D03*
X161037500Y-104437500D03*
X160237500Y-104437500D03*
X159437500Y-104437500D03*
X158637500Y-104437500D03*
X157837500Y-104437500D03*
%TD*%
D10*
%TO.C,C1*%
X150500000Y-109500000D03*
X152400000Y-109500000D03*
%TD*%
D13*
%TO.C,R6*%
X170180000Y-99060000D03*
X172005000Y-99060000D03*
%TD*%
D10*
%TO.C,C2*%
X157060000Y-125080000D03*
X158960000Y-125080000D03*
%TD*%
D14*
%TO.C,Y1*%
X162220000Y-119380000D03*
X160020000Y-119380000D03*
X160020000Y-121080000D03*
X162220000Y-121080000D03*
%TD*%
D15*
%TO.C,R4*%
X170180000Y-86360000D03*
X168355000Y-86360000D03*
%TD*%
D10*
%TO.C,C5*%
X152400000Y-121920000D03*
X154300000Y-121920000D03*
%TD*%
%TO.C,C7*%
X163200000Y-96520000D03*
X165100000Y-96520000D03*
%TD*%
%TO.C,C10*%
X157480000Y-83820000D03*
X159380000Y-83820000D03*
%TD*%
%TO.C,C9*%
X162560000Y-81280000D03*
X164460000Y-81280000D03*
%TD*%
D13*
%TO.C,R5*%
X160675000Y-132080000D03*
X162500000Y-132080000D03*
%TD*%
D15*
%TO.C,R3*%
X170180000Y-88900000D03*
X168355000Y-88900000D03*
%TD*%
D13*
%TO.C,R1*%
X174347500Y-81280000D03*
X176172500Y-81280000D03*
%TD*%
D10*
%TO.C,C3*%
X161560000Y-125080000D03*
X163460000Y-125080000D03*
%TD*%
%TO.C,C8*%
X157480000Y-93980000D03*
X159380000Y-93980000D03*
%TD*%
D13*
%TO.C,R2*%
X154940000Y-78740000D03*
X156765000Y-78740000D03*
%TD*%
M02*
