%TF.GenerationSoftware,KiCad,Pcbnew,10.0.3*%
%TF.CreationDate,2026-08-18T16:08:35-04:00*%
%TF.ProjectId,Controller2,436f6e74-726f-46c6-9c65-72322e6b6963,rev?*%
%TF.SameCoordinates,Original*%
%TF.FileFunction,Copper,L1,Top*%
%TF.FilePolarity,Positive*%
%FSLAX46Y46*%
G04 Gerber Fmt 4.6, Leading zero omitted, Abs format (unit mm)*
G04 Created by KiCad (PCBNEW 10.0.3) date 2026-08-18 16:08:35*
%MOMM*%
%LPD*%
G01*
G04 APERTURE LIST*
G04 Aperture macros list*
%AMRoundRect*
0 Rectangle with rounded corners*
0 $1 Rounding radius*
0 $2 $3 $4 $5 $6 $7 $8 $9 X,Y pos of 4 corners*
0 Add a 4 corners polygon primitive as box body*
4,1,4,$2,$3,$4,$5,$6,$7,$8,$9,$2,$3,0*
0 Add four circle primitives for the rounded corners*
1,1,$1+$1,$2,$3*
1,1,$1+$1,$4,$5*
1,1,$1+$1,$6,$7*
1,1,$1+$1,$8,$9*
0 Add four rect primitives between the rounded corners*
20,1,$1+$1,$2,$3,$4,$5,0*
20,1,$1+$1,$4,$5,$6,$7,0*
20,1,$1+$1,$6,$7,$8,$9,0*
20,1,$1+$1,$8,$9,$2,$3,0*%
G04 Aperture macros list end*
%TA.AperFunction,ComponentPad*%
%ADD10C,2.000000*%
%TD*%
%TA.AperFunction,SMDPad,CuDef*%
%ADD11RoundRect,0.250000X-0.250000X-0.475000X0.250000X-0.475000X0.250000X0.475000X-0.250000X0.475000X0*%
%TD*%
%TA.AperFunction,ComponentPad*%
%ADD12R,1.700000X1.700000*%
%TD*%
%TA.AperFunction,ComponentPad*%
%ADD13C,1.700000*%
%TD*%
%TA.AperFunction,SMDPad,CuDef*%
%ADD14RoundRect,0.137500X-0.600000X-0.137500X0.600000X-0.137500X0.600000X0.137500X-0.600000X0.137500X0*%
%TD*%
%TA.AperFunction,SMDPad,CuDef*%
%ADD15RoundRect,0.137500X-0.137500X-0.600000X0.137500X-0.600000X0.137500X0.600000X-0.137500X0.600000X0*%
%TD*%
%TA.AperFunction,SMDPad,CuDef*%
%ADD16RoundRect,0.250000X-0.262500X-0.450000X0.262500X-0.450000X0.262500X0.450000X-0.262500X0.450000X0*%
%TD*%
%TA.AperFunction,SMDPad,CuDef*%
%ADD17RoundRect,0.250000X0.450000X0.350000X-0.450000X0.350000X-0.450000X-0.350000X0.450000X-0.350000X0*%
%TD*%
%TA.AperFunction,SMDPad,CuDef*%
%ADD18RoundRect,0.250000X0.262500X0.450000X-0.262500X0.450000X-0.262500X-0.450000X0.262500X-0.450000X0*%
%TD*%
%TA.AperFunction,ComponentPad*%
%ADD19C,0.700000*%
%TD*%
%TA.AperFunction,ComponentPad*%
%ADD20O,0.900000X2.400000*%
%TD*%
%TA.AperFunction,ComponentPad*%
%ADD21O,0.900000X1.700000*%
%TD*%
%TA.AperFunction,ViaPad*%
%ADD22C,0.600000*%
%TD*%
%TA.AperFunction,Conductor*%
%ADD23C,0.200000*%
%TD*%
G04 APERTURE END LIST*
D10*
%TO.P,SW4,2,2_2*%
%TO.N,GND*%
X130000000Y-152000000D03*
X123500000Y-152000000D03*
%TO.P,SW4,1,1_1*%
%TO.N,Net-(U1-PD3)*%
X130000000Y-147500000D03*
X123500000Y-147500000D03*
%TD*%
D11*
%TO.P,C6,1*%
%TO.N,+5V*%
X175900000Y-116840000D03*
%TO.P,C6,2*%
%TO.N,GND*%
X177800000Y-116840000D03*
%TD*%
D12*
%TO.P,RV2,1,1_1*%
%TO.N,+5V*%
X119780000Y-111090000D03*
D13*
%TO.P,RV2,2,2_2*%
%TO.N,Net-(U1-PF1)*%
X119780000Y-113630000D03*
%TO.P,RV2,3,3_3*%
%TO.N,GND*%
X119780000Y-116170000D03*
%TD*%
D12*
%TO.P,RV4,1,1_1*%
%TO.N,+5V*%
X201770000Y-147320000D03*
D13*
%TO.P,RV4,2,2_2*%
%TO.N,Net-(U1-PF5)*%
X201770000Y-149860000D03*
%TO.P,RV4,3,3_3*%
%TO.N,GND*%
X201770000Y-152400000D03*
%TD*%
D10*
%TO.P,SW8,1,1_1*%
%TO.N,Net-(U1-PD4)*%
X200610000Y-113000000D03*
X207110000Y-113000000D03*
%TO.P,SW8,2,2_2*%
%TO.N,GND*%
X200610000Y-117500000D03*
X207110000Y-117500000D03*
%TD*%
%TO.P,SW10,1,1_1*%
%TO.N,Net-(U1-PB5)*%
X193000000Y-76500000D03*
X199500000Y-76500000D03*
%TO.P,SW10,2,2_2*%
%TO.N,GND*%
X193000000Y-81000000D03*
X199500000Y-81000000D03*
%TD*%
D11*
%TO.P,C4,1*%
%TO.N,GND*%
X156600000Y-132080000D03*
%TO.P,C4,2*%
%TO.N,Net-(J2-Pin_5)*%
X158500000Y-132080000D03*
%TD*%
D14*
%TO.P,U1,1,PE6_1*%
%TO.N,unconnected-(U1-PE6-Pad1)*%
X156175000Y-106100000D03*
%TO.P,U1,2,UVCC_2*%
%TO.N,+5V*%
X156175000Y-106900000D03*
%TO.P,U1,3,D-_3*%
%TO.N,Net-(U1-D-)*%
X156175000Y-107700000D03*
%TO.P,U1,4,D+_4*%
%TO.N,Net-(U1-D+)*%
X156175000Y-108500000D03*
%TO.P,U1,5,UGND_5*%
%TO.N,GND*%
X156175000Y-109300000D03*
%TO.P,U1,6,UCAP_6*%
%TO.N,Net-(U1-UCAP)*%
X156175000Y-110100000D03*
%TO.P,U1,7,VBUS_7*%
%TO.N,+5V*%
X156175000Y-110900000D03*
%TO.P,U1,8,PB0_8*%
%TO.N,unconnected-(U1-PB0-Pad8)*%
X156175000Y-111700000D03*
%TO.P,U1,9,PB1_9*%
%TO.N,Net-(J2-Pin_3)*%
X156175000Y-112500000D03*
%TO.P,U1,10,PB2_10*%
%TO.N,Net-(J2-Pin_4)*%
X156175000Y-113300000D03*
%TO.P,U1,11,PB3_11*%
%TO.N,Net-(J2-Pin_1)*%
X156175000Y-114100000D03*
D15*
%TO.P,U1,12,PB7_12*%
%TO.N,Net-(U1-PB7)*%
X157837500Y-115762500D03*
%TO.P,U1,13,~{RESET}_13*%
%TO.N,Net-(J2-Pin_5)*%
X158637500Y-115762500D03*
%TO.P,U1,14,VCC_14*%
%TO.N,+5V*%
X159437500Y-115762500D03*
%TO.P,U1,15,GND_15*%
%TO.N,GND*%
X160237500Y-115762500D03*
%TO.P,U1,16,XTAL2_16*%
%TO.N,Net-(U1-XTAL2)*%
X161037500Y-115762500D03*
%TO.P,U1,17,XTAL1_17*%
%TO.N,Net-(U1-XTAL1)*%
X161837500Y-115762500D03*
%TO.P,U1,18,PD0_18*%
%TO.N,Net-(U1-PD0)*%
X162637500Y-115762500D03*
%TO.P,U1,19,PD1_19*%
%TO.N,Net-(U1-PD1)*%
X163437500Y-115762500D03*
%TO.P,U1,20,PD2_20*%
%TO.N,Net-(U1-PD2)*%
X164237500Y-115762500D03*
%TO.P,U1,21,PD3_21*%
%TO.N,Net-(U1-PD3)*%
X165037500Y-115762500D03*
%TO.P,U1,22,PD5_22*%
%TO.N,Net-(U1-PD5)*%
X165837500Y-115762500D03*
D14*
%TO.P,U1,23,GND_23*%
%TO.N,GND*%
X167500000Y-114100000D03*
%TO.P,U1,24,AVCC_24*%
%TO.N,+5V*%
X167500000Y-113300000D03*
%TO.P,U1,25,PD4_25*%
%TO.N,Net-(U1-PD4)*%
X167500000Y-112500000D03*
%TO.P,U1,26,PD6_26*%
%TO.N,Net-(U1-PD6)*%
X167500000Y-111700000D03*
%TO.P,U1,27,PD7_27*%
%TO.N,Net-(U1-PD7)*%
X167500000Y-110900000D03*
%TO.P,U1,28,PB4_28*%
%TO.N,Net-(U1-PB4)*%
X167500000Y-110100000D03*
%TO.P,U1,29,PB5_29*%
%TO.N,Net-(U1-PB5)*%
X167500000Y-109300000D03*
%TO.P,U1,30,PB6_30*%
%TO.N,Net-(U1-PB6)*%
X167500000Y-108500000D03*
%TO.P,U1,31,PC6_31*%
%TO.N,Net-(U1-PC6)*%
X167500000Y-107700000D03*
%TO.P,U1,32,PC7_32*%
%TO.N,Net-(U1-PC7)*%
X167500000Y-106900000D03*
%TO.P,U1,33,~{HWB}/PE2_33*%
%TO.N,Net-(U1-~{HWB}{slash}PE2)*%
X167500000Y-106100000D03*
D15*
%TO.P,U1,34,VCC_34*%
%TO.N,+5V*%
X165837500Y-104437500D03*
%TO.P,U1,35,GND_35*%
%TO.N,GND*%
X165037500Y-104437500D03*
%TO.P,U1,36,PF7_36*%
%TO.N,unconnected-(U1-PF7-Pad36)*%
X164237500Y-104437500D03*
%TO.P,U1,37,PF6_37*%
%TO.N,unconnected-(U1-PF6-Pad37)*%
X163437500Y-104437500D03*
%TO.P,U1,38,PF5_38*%
%TO.N,Net-(U1-PF5)*%
X162637500Y-104437500D03*
%TO.P,U1,39,PF4_39*%
%TO.N,Net-(U1-PF4)*%
X161837500Y-104437500D03*
%TO.P,U1,40,PF1_40*%
%TO.N,Net-(U1-PF1)*%
X161037500Y-104437500D03*
%TO.P,U1,41,PF0_41*%
%TO.N,Net-(U1-PF0)*%
X160237500Y-104437500D03*
%TO.P,U1,42,AREF_42*%
%TO.N,Net-(U1-AREF)*%
X159437500Y-104437500D03*
%TO.P,U1,43,GND_43*%
%TO.N,GND*%
X158637500Y-104437500D03*
%TO.P,U1,44,AVCC_44*%
%TO.N,+5V*%
X157837500Y-104437500D03*
%TD*%
D11*
%TO.P,C1,1*%
%TO.N,GND*%
X150500000Y-109500000D03*
%TO.P,C1,2*%
%TO.N,Net-(U1-UCAP)*%
X152400000Y-109500000D03*
%TD*%
D10*
%TO.P,SW11,1,1_1*%
%TO.N,Net-(U1-PB6)*%
X113000000Y-85500000D03*
X119500000Y-85500000D03*
%TO.P,SW11,2,2_2*%
%TO.N,GND*%
X113000000Y-90000000D03*
X119500000Y-90000000D03*
%TD*%
D12*
%TO.P,RV1,1,1_1*%
%TO.N,+5V*%
X108510000Y-104900000D03*
D13*
%TO.P,RV1,2,2_2*%
%TO.N,Net-(U1-PF0)*%
X111050000Y-104900000D03*
%TO.P,RV1,3,3_3*%
%TO.N,GND*%
X113590000Y-104900000D03*
%TD*%
D16*
%TO.P,R6,1*%
%TO.N,Net-(U1-~{HWB}{slash}PE2)*%
X170180000Y-99060000D03*
%TO.P,R6,2*%
%TO.N,GND*%
X172005000Y-99060000D03*
%TD*%
D11*
%TO.P,C2,1*%
%TO.N,Net-(U1-XTAL1)*%
X157060000Y-125080000D03*
%TO.P,C2,2*%
%TO.N,GND*%
X158960000Y-125080000D03*
%TD*%
D10*
%TO.P,SW12,1,1_1*%
%TO.N,Net-(U1-PB7)*%
X113000000Y-76500000D03*
X119500000Y-76500000D03*
%TO.P,SW12,2,2_2*%
%TO.N,GND*%
X113000000Y-81000000D03*
X119500000Y-81000000D03*
%TD*%
%TO.P,SW1,1,1_1*%
%TO.N,Net-(U1-PD0)*%
X142500000Y-147500000D03*
X149000000Y-147500000D03*
%TO.P,SW1,2,2_2*%
%TO.N,GND*%
X142500000Y-152000000D03*
X149000000Y-152000000D03*
%TD*%
%TO.P,SW7,1,1_1*%
%TO.N,Net-(U1-PD5)*%
X210110000Y-105000000D03*
X216610000Y-105000000D03*
%TO.P,SW7,2,2_2*%
%TO.N,GND*%
X210110000Y-109500000D03*
X216610000Y-109500000D03*
%TD*%
D12*
%TO.P,J2,1,Pin_1_1*%
%TO.N,Net-(J2-Pin_1)*%
X111760000Y-134620000D03*
D13*
%TO.P,J2,2,Pin_2_2*%
%TO.N,+5V*%
X114300000Y-134620000D03*
%TO.P,J2,3,Pin_3_3*%
%TO.N,Net-(J2-Pin_3)*%
X111760000Y-137160000D03*
%TO.P,J2,4,Pin_4_4*%
%TO.N,Net-(J2-Pin_4)*%
X114300000Y-137160000D03*
%TO.P,J2,5,Pin_5_5*%
%TO.N,Net-(J2-Pin_5)*%
X111760000Y-139700000D03*
%TO.P,J2,6,Pin_6_6*%
%TO.N,GND*%
X114300000Y-139700000D03*
%TD*%
D17*
%TO.P,Y1,1,1_1*%
%TO.N,Net-(U1-XTAL1)*%
X162220000Y-119380000D03*
%TO.P,Y1,2,2_2*%
%TO.N,Net-(U1-XTAL2)*%
X160020000Y-119380000D03*
%TO.P,Y1,3*%
%TO.N,N/C*%
X160020000Y-121080000D03*
%TO.P,Y1,4*%
X162220000Y-121080000D03*
%TD*%
D10*
%TO.P,SW6,1,1_1*%
%TO.N,Net-(U1-PD6)*%
X210110000Y-121000000D03*
X216610000Y-121000000D03*
%TO.P,SW6,2,2_2*%
%TO.N,GND*%
X210110000Y-125500000D03*
X216610000Y-125500000D03*
%TD*%
D18*
%TO.P,R4,1*%
%TO.N,Net-(J1-D+-PadA6)*%
X170180000Y-86360000D03*
%TO.P,R4,2*%
%TO.N,Net-(U1-D+)*%
X168355000Y-86360000D03*
%TD*%
D11*
%TO.P,C5,1*%
%TO.N,+5V*%
X152400000Y-121920000D03*
%TO.P,C5,2*%
%TO.N,GND*%
X154300000Y-121920000D03*
%TD*%
%TO.P,C7,1*%
%TO.N,+5V*%
X163200000Y-96520000D03*
%TO.P,C7,2*%
%TO.N,GND*%
X165100000Y-96520000D03*
%TD*%
D19*
%TO.P,J1,A1,GND_A1*%
%TO.N,GND*%
X171370000Y-75480000D03*
%TO.P,J1,A4,VBUS_A4*%
%TO.N,+5V*%
X170520000Y-75480000D03*
%TO.P,J1,A5,CC1_A5*%
%TO.N,Net-(J1-CC1)*%
X169670000Y-75480000D03*
%TO.P,J1,A6,D+_A6*%
%TO.N,Net-(J1-D+-PadA6)*%
X168820000Y-75480000D03*
%TO.P,J1,A7,D-_A7*%
%TO.N,Net-(J1-D--PadA7)*%
X167970000Y-75480000D03*
%TO.P,J1,A8,SBU1_A8*%
%TO.N,unconnected-(J1-SBU1-PadA8)*%
X167120000Y-75480000D03*
%TO.P,J1,A9,VBUS_A9*%
%TO.N,+5V*%
X166270000Y-75480000D03*
%TO.P,J1,A12,GND_A12*%
%TO.N,GND*%
X165420000Y-75480000D03*
%TO.P,J1,B1,GND_B1*%
X165420000Y-74130000D03*
%TO.P,J1,B4,VBUS_B4*%
%TO.N,+5V*%
X166270000Y-74130000D03*
%TO.P,J1,B5,CC2_B5*%
%TO.N,Net-(J1-CC2)*%
X167120000Y-74130000D03*
%TO.P,J1,B6,D+_B6*%
%TO.N,Net-(J1-D+-PadA6)*%
X167970000Y-74130000D03*
%TO.P,J1,B7,D-_B7*%
%TO.N,Net-(J1-D--PadA7)*%
X168820000Y-74130000D03*
%TO.P,J1,B8,SBU2_B8*%
%TO.N,unconnected-(J1-SBU2-PadB8)*%
X169670000Y-74130000D03*
%TO.P,J1,B9,VBUS_B9*%
%TO.N,+5V*%
X170520000Y-74130000D03*
%TO.P,J1,B12,GND_B12*%
%TO.N,GND*%
X171370000Y-74130000D03*
D20*
%TO.P,J1,SH,SHIELD_SH*%
X172720000Y-74500000D03*
D21*
X172720000Y-71120000D03*
D20*
X164070000Y-74500000D03*
D21*
X164070000Y-71120000D03*
%TD*%
D11*
%TO.P,C10,1*%
%TO.N,GND*%
X157480000Y-83820000D03*
%TO.P,C10,2*%
%TO.N,+5V*%
X159380000Y-83820000D03*
%TD*%
%TO.P,C9,1*%
%TO.N,GND*%
X162560000Y-81280000D03*
%TO.P,C9,2*%
%TO.N,+5V*%
X164460000Y-81280000D03*
%TD*%
D10*
%TO.P,SW14,1,1_1*%
%TO.N,Net-(U1-PC7)*%
X189790000Y-155610000D03*
X196290000Y-155610000D03*
%TO.P,SW14,2,2_2*%
%TO.N,GND*%
X189790000Y-160110000D03*
X196290000Y-160110000D03*
%TD*%
%TO.P,SW3,1,1_1*%
%TO.N,Net-(U1-PD2)*%
X133000000Y-139500000D03*
X139500000Y-139500000D03*
%TO.P,SW3,2,2_2*%
%TO.N,GND*%
X133000000Y-144000000D03*
X139500000Y-144000000D03*
%TD*%
D16*
%TO.P,R5,1*%
%TO.N,+5V*%
X160675000Y-132080000D03*
%TO.P,R5,2*%
%TO.N,Net-(J2-Pin_5)*%
X162500000Y-132080000D03*
%TD*%
D12*
%TO.P,RV3,1,1_1*%
%TO.N,+5V*%
X195580000Y-141130000D03*
D13*
%TO.P,RV3,2,2_2*%
%TO.N,Net-(U1-PF4)*%
X193040000Y-141130000D03*
%TO.P,RV3,3,3_3*%
%TO.N,GND*%
X190500000Y-141130000D03*
%TD*%
D10*
%TO.P,SW9,1,1_1*%
%TO.N,Net-(U1-PB4)*%
X193000000Y-85500000D03*
X199500000Y-85500000D03*
%TO.P,SW9,2,2_2*%
%TO.N,GND*%
X193000000Y-90000000D03*
X199500000Y-90000000D03*
%TD*%
D18*
%TO.P,R3,1*%
%TO.N,Net-(J1-D--PadA7)*%
X170180000Y-88900000D03*
%TO.P,R3,2*%
%TO.N,Net-(U1-D-)*%
X168355000Y-88900000D03*
%TD*%
D16*
%TO.P,R1,1*%
%TO.N,Net-(J1-CC1)*%
X174347500Y-81280000D03*
%TO.P,R1,2*%
%TO.N,GND*%
X176172500Y-81280000D03*
%TD*%
D11*
%TO.P,C3,1*%
%TO.N,Net-(U1-XTAL2)*%
X161560000Y-125080000D03*
%TO.P,C3,2*%
%TO.N,GND*%
X163460000Y-125080000D03*
%TD*%
D10*
%TO.P,SW5,1,1_1*%
%TO.N,Net-(U1-PD7)*%
X219610000Y-113000000D03*
X226110000Y-113000000D03*
%TO.P,SW5,2,2_2*%
%TO.N,GND*%
X219610000Y-117500000D03*
X226110000Y-117500000D03*
%TD*%
D11*
%TO.P,C8,1*%
%TO.N,Net-(U1-AREF)*%
X157480000Y-93980000D03*
%TO.P,C8,2*%
%TO.N,GND*%
X159380000Y-93980000D03*
%TD*%
D10*
%TO.P,SW13,1,1_1*%
%TO.N,Net-(U1-PC6)*%
X107800000Y-119380000D03*
X114300000Y-119380000D03*
%TO.P,SW13,2,2_2*%
%TO.N,GND*%
X107800000Y-123880000D03*
X114300000Y-123880000D03*
%TD*%
%TO.P,SW2,1,1_1*%
%TO.N,Net-(U1-PD1)*%
X133000000Y-155500000D03*
X139500000Y-155500000D03*
%TO.P,SW2,2,2_2*%
%TO.N,GND*%
X133000000Y-160000000D03*
X139500000Y-160000000D03*
%TD*%
D16*
%TO.P,R2,1*%
%TO.N,Net-(J1-CC2)*%
X154940000Y-78740000D03*
%TO.P,R2,2*%
%TO.N,GND*%
X156765000Y-78740000D03*
%TD*%
D22*
%TO.N,Net-(U1-PD3)*%
X170180000Y-119380000D03*
X161067000Y-146273000D03*
%TO.N,Net-(U1-PF1)*%
X124460000Y-111760000D03*
%TO.N,Net-(U1-PF4)*%
X185420000Y-114300000D03*
%TO.N,Net-(U1-PF5)*%
X182152997Y-114300000D03*
X165374219Y-103306557D03*
%TO.N,Net-(U1-PF4)*%
X167640000Y-101600000D03*
%TO.N,Net-(U1-PC7)*%
X170146104Y-106646104D03*
X180340000Y-114300000D03*
%TO.N,GND*%
X147320000Y-109220000D03*
%TO.N,+5V*%
X127000000Y-116840000D03*
X175260000Y-134620000D03*
X170180000Y-124460000D03*
X165100000Y-91440000D03*
X116840000Y-132080000D03*
X172720000Y-121920000D03*
X190500000Y-137160000D03*
X154940000Y-119380000D03*
X167920132Y-99340132D03*
X167370000Y-81280000D03*
X157107354Y-119007354D03*
%TO.N,GND*%
X180340000Y-116840000D03*
X157480000Y-110300000D03*
X152400000Y-124460000D03*
X155312646Y-84192646D03*
X172720000Y-96520000D03*
X177800000Y-78740000D03*
X160020000Y-106680000D03*
X119380000Y-139700000D03*
X157480000Y-121920000D03*
X154940000Y-132080000D03*
X160020000Y-91440000D03*
%TO.N,Net-(U1-PF1)*%
X154940000Y-99060000D03*
%TO.N,Net-(J2-Pin_3)*%
X129540000Y-121920000D03*
X134620000Y-116840000D03*
%TO.N,Net-(J2-Pin_4)*%
X137160000Y-116840000D03*
X132080000Y-121920000D03*
%TO.N,Net-(J2-Pin_1)*%
X134992646Y-119907000D03*
X139700000Y-116840000D03*
%TO.N,Net-(U1-PB7)*%
X152400000Y-106680000D03*
X155291779Y-117191779D03*
%TO.N,Net-(U1-PD2)*%
X169755735Y-122344265D03*
%TO.N,Net-(U1-PD5)*%
X172720000Y-111760000D03*
X170180000Y-114300000D03*
%TO.N,Net-(U1-PB6)*%
X154937500Y-109220000D03*
X160020000Y-109220000D03*
%TO.N,Net-(U1-PC6)*%
X157412500Y-114227514D03*
X164645686Y-107700000D03*
%TO.N,Net-(U1-PF0)*%
X147320000Y-101600000D03*
X154940000Y-101600000D03*
%TO.N,Net-(J1-CC1)*%
X170180000Y-78740000D03*
%TO.N,Net-(U1-PD2)*%
X165887437Y-118158249D03*
%TD*%
%TO.N,Net-(U1-PD3)*%
D23*
X170180000Y-119380000D02*
X168771372Y-119380000D01*
X168771372Y-119380000D02*
X166191372Y-116800000D01*
X131227000Y-146273000D02*
X161067000Y-146273000D01*
X130000000Y-147500000D02*
X131227000Y-146273000D01*
%TO.N,Net-(J2-Pin_3)*%
X124460000Y-127000000D02*
X129540000Y-121920000D01*
X114300000Y-127000000D02*
X124460000Y-127000000D01*
X109220000Y-132080000D02*
X114300000Y-127000000D01*
X109220000Y-134620000D02*
X109220000Y-132080000D01*
X111760000Y-137160000D02*
X109220000Y-134620000D01*
%TO.N,Net-(J2-Pin_5)*%
X121920000Y-142240000D02*
X114300000Y-142240000D01*
X134320000Y-129840000D02*
X121920000Y-142240000D01*
X114300000Y-142240000D02*
X111760000Y-139700000D01*
X156260000Y-129840000D02*
X134320000Y-129840000D01*
%TO.N,Net-(U1-PF1)*%
X122590000Y-113630000D02*
X124460000Y-111760000D01*
X119780000Y-113630000D02*
X122590000Y-113630000D01*
%TO.N,Net-(U1-PD4)*%
X195580000Y-113000000D02*
X200610000Y-113000000D01*
X195080000Y-112500000D02*
X195580000Y-113000000D01*
X167500000Y-112500000D02*
X195080000Y-112500000D01*
%TO.N,Net-(U1-PF5)*%
X190500000Y-149860000D02*
X201770000Y-149860000D01*
X185420000Y-117567003D02*
X185420000Y-144780000D01*
X182152997Y-114300000D02*
X185420000Y-117567003D01*
%TO.N,Net-(U1-PF4)*%
X188515000Y-117395000D02*
X188515000Y-136605000D01*
X185420000Y-114300000D02*
X188515000Y-117395000D01*
%TO.N,Net-(U1-PF5)*%
X163311653Y-103306557D02*
X165374219Y-103306557D01*
X162637500Y-103980710D02*
X163311653Y-103306557D01*
X162637500Y-104437500D02*
X162637500Y-103980710D01*
%TO.N,Net-(U1-PF4)*%
X162560000Y-101600000D02*
X161837500Y-102322500D01*
X167640000Y-101600000D02*
X162560000Y-101600000D01*
X161837500Y-104437500D02*
X161837500Y-102322500D01*
X193040000Y-141130000D02*
X188515000Y-136605000D01*
%TO.N,Net-(U1-PC7)*%
X167753896Y-106646104D02*
X167500000Y-106900000D01*
X170146104Y-106646104D02*
X167753896Y-106646104D01*
%TO.N,+5V*%
X190500000Y-137160000D02*
X191610000Y-137160000D01*
X191610000Y-137160000D02*
X195580000Y-141130000D01*
%TO.N,Net-(U1-PC7)*%
X182353000Y-116313000D02*
X180340000Y-114300000D01*
X182353000Y-148173000D02*
X182353000Y-116313000D01*
X189790000Y-155610000D02*
X182353000Y-148173000D01*
%TO.N,GND*%
X147600000Y-109500000D02*
X147320000Y-109220000D01*
X150500000Y-109500000D02*
X147600000Y-109500000D01*
%TO.N,Net-(U1-UCAP)*%
X156175000Y-110100000D02*
X153000000Y-110100000D01*
X153000000Y-110100000D02*
X152400000Y-109500000D01*
%TO.N,+5V*%
X156175000Y-106900000D02*
X156912499Y-106900000D01*
X165837500Y-104437500D02*
X165837500Y-105942500D01*
X164460000Y-81280000D02*
X165170000Y-81280000D01*
X119780000Y-111090000D02*
X121250000Y-111090000D01*
X160675000Y-132080000D02*
X161675000Y-131080000D01*
X127000000Y-114300000D02*
X130400000Y-110900000D01*
X165600000Y-131080000D02*
X169140000Y-134620000D01*
X159380000Y-83820000D02*
X161920000Y-83820000D01*
X157837500Y-104437500D02*
X157837500Y-105974999D01*
X167500000Y-113300000D02*
X161162501Y-113300000D01*
X121440000Y-110900000D02*
X127000000Y-110900000D01*
X160459857Y-107052646D02*
X158762501Y-108750002D01*
X168997552Y-104140000D02*
X166135000Y-104140000D01*
X158762501Y-108750002D02*
X158762501Y-110900000D01*
X201770000Y-147320000D02*
X195580000Y-141130000D01*
X166270000Y-80180000D02*
X166270000Y-75480000D01*
X167640000Y-129040000D02*
X165600000Y-131080000D01*
X163200000Y-96520000D02*
X163200000Y-93340000D01*
X163200000Y-93340000D02*
X165100000Y-91440000D01*
X169853000Y-101273000D02*
X169853000Y-103284552D01*
X114700000Y-111090000D02*
X119780000Y-111090000D01*
X167370000Y-81280000D02*
X166270000Y-80180000D01*
X158762501Y-110900000D02*
X160091251Y-112228750D01*
X159437500Y-115762500D02*
X159437500Y-116677208D01*
X170180000Y-124460000D02*
X167640000Y-127000000D01*
X156912499Y-106900000D02*
X158762501Y-108750002D01*
X130400000Y-110900000D02*
X156175000Y-110900000D01*
X172720000Y-114300000D02*
X173360000Y-114300000D01*
X167920132Y-99340132D02*
X169853000Y-101273000D01*
X171720000Y-113300000D02*
X167500000Y-113300000D01*
X114300000Y-134620000D02*
X116840000Y-132080000D01*
X159437500Y-116677208D02*
X157107354Y-119007354D01*
X154940000Y-119380000D02*
X152400000Y-121920000D01*
X161920000Y-83820000D02*
X164460000Y-81280000D01*
X164727354Y-107052646D02*
X160459857Y-107052646D01*
X161162501Y-113300000D02*
X160091251Y-114371251D01*
X161675000Y-131080000D02*
X165600000Y-131080000D01*
X159437500Y-115025001D02*
X159437500Y-115762500D01*
X169853000Y-103284552D02*
X168997552Y-104140000D01*
X167640000Y-127000000D02*
X167640000Y-129040000D01*
X156175000Y-110900000D02*
X158762501Y-110900000D01*
X165170000Y-81280000D02*
X166270000Y-80180000D01*
X108510000Y-104900000D02*
X114700000Y-111090000D01*
X170520000Y-75480000D02*
X170520000Y-74130000D01*
X172720000Y-114300000D02*
X171720000Y-113300000D01*
X175260000Y-134620000D02*
X169140000Y-134620000D01*
X173360000Y-114300000D02*
X175900000Y-116840000D01*
X172720000Y-114300000D02*
X172720000Y-121920000D01*
X127000000Y-116840000D02*
X127000000Y-114300000D01*
X160091251Y-112228750D02*
X160091251Y-114371251D01*
X157837500Y-105974999D02*
X156912499Y-106900000D01*
X127000000Y-110900000D02*
X130400000Y-110900000D01*
X121250000Y-111090000D02*
X121440000Y-110900000D01*
X166135000Y-104140000D02*
X165837500Y-104437500D01*
X165837500Y-105942500D02*
X164727354Y-107052646D01*
X160091251Y-114371251D02*
X159437500Y-115025001D01*
%TO.N,GND*%
X156912499Y-109300000D02*
X157480000Y-109867501D01*
X158960000Y-125080000D02*
X158960000Y-123400000D01*
X158637500Y-105297500D02*
X160020000Y-106680000D01*
X165037500Y-104437500D02*
X165037500Y-105174999D01*
X159380000Y-98420000D02*
X160020000Y-99060000D01*
X164070000Y-74500000D02*
X161005000Y-74500000D01*
X159380000Y-93980000D02*
X159380000Y-92080000D01*
X162435000Y-126105000D02*
X159985000Y-126105000D01*
X162560000Y-81280000D02*
X160020000Y-81280000D01*
X162560000Y-99060000D02*
X165100000Y-96520000D01*
X114300000Y-139700000D02*
X119380000Y-139700000D01*
X156600000Y-132080000D02*
X154940000Y-132080000D01*
X159380000Y-93980000D02*
X159380000Y-98420000D01*
X177800000Y-116840000D02*
X180340000Y-116840000D01*
X161005000Y-74500000D02*
X156765000Y-78740000D01*
X160237500Y-116622500D02*
X157480000Y-119380000D01*
X160020000Y-99060000D02*
X162560000Y-99060000D01*
X165037500Y-105174999D02*
X163532499Y-106680000D01*
X176172500Y-81280000D02*
X176172500Y-80367500D01*
X160237500Y-115762500D02*
X160237500Y-116622500D01*
X160237500Y-115025001D02*
X161162501Y-114100000D01*
X176172500Y-80367500D02*
X177800000Y-78740000D01*
X152400000Y-123820000D02*
X152400000Y-124460000D01*
X160237500Y-115762500D02*
X160237500Y-115025001D01*
X172005000Y-97235000D02*
X172720000Y-96520000D01*
X158960000Y-123400000D02*
X157480000Y-121920000D01*
X159985000Y-126105000D02*
X158960000Y-125080000D01*
X171370000Y-74130000D02*
X171370000Y-75480000D01*
X159380000Y-92080000D02*
X160020000Y-91440000D01*
X156175000Y-109300000D02*
X156912499Y-109300000D01*
X154300000Y-121920000D02*
X152400000Y-123820000D01*
X160020000Y-81280000D02*
X157480000Y-83820000D01*
X172005000Y-99060000D02*
X172005000Y-97235000D01*
X157480000Y-109867501D02*
X157480000Y-110300000D01*
X158637500Y-104437500D02*
X158637500Y-105297500D01*
X157480000Y-119380000D02*
X157480000Y-121920000D01*
X163532499Y-106680000D02*
X160020000Y-106680000D01*
X157480000Y-83820000D02*
X155685292Y-83820000D01*
X155685292Y-83820000D02*
X155312646Y-84192646D01*
X161162501Y-114100000D02*
X167500000Y-114100000D01*
X163460000Y-125080000D02*
X162435000Y-126105000D01*
%TO.N,Net-(U1-PF1)*%
X161037500Y-103700001D02*
X161037500Y-104437500D01*
X154940000Y-99060000D02*
X156397499Y-99060000D01*
X156397499Y-99060000D02*
X161037500Y-103700001D01*
%TO.N,Net-(U1-PD4)*%
X207110000Y-113000000D02*
X200610000Y-113000000D01*
%TO.N,Net-(U1-PB5)*%
X168237499Y-109300000D02*
X167500000Y-109300000D01*
X199500000Y-76500000D02*
X193000000Y-76500000D01*
X183140000Y-86360000D02*
X183140000Y-94397499D01*
X193000000Y-76500000D02*
X183140000Y-86360000D01*
X183140000Y-94397499D02*
X168237499Y-109300000D01*
%TO.N,Net-(J2-Pin_5)*%
X156260000Y-129840000D02*
X156260000Y-118877499D01*
X162500000Y-132080000D02*
X161500000Y-133080000D01*
X158637500Y-116499999D02*
X158637500Y-115762500D01*
X161500000Y-133080000D02*
X159500000Y-133080000D01*
X159500000Y-133080000D02*
X158500000Y-132080000D01*
X158500000Y-132080000D02*
X156260000Y-129840000D01*
X156260000Y-118877499D02*
X158637500Y-116499999D01*
%TO.N,Net-(U1-D-)*%
X152400000Y-96520000D02*
X160020000Y-88900000D01*
X155437501Y-107700000D02*
X152400000Y-104662499D01*
X160020000Y-88900000D02*
X168355000Y-88900000D01*
X156175000Y-107700000D02*
X155437501Y-107700000D01*
X152400000Y-104662499D02*
X152400000Y-96520000D01*
%TO.N,Net-(U1-D+)*%
X168355000Y-86360000D02*
X160020000Y-86360000D01*
X149860000Y-96520000D02*
X149860000Y-102922499D01*
X155437501Y-108500000D02*
X149860000Y-102922499D01*
X160020000Y-86360000D02*
X149860000Y-96520000D01*
X156175000Y-108500000D02*
X155437501Y-108500000D01*
%TO.N,Net-(J2-Pin_3)*%
X138960000Y-112500000D02*
X134620000Y-116840000D01*
X156175000Y-112500000D02*
X138960000Y-112500000D01*
%TO.N,Net-(J2-Pin_4)*%
X137160000Y-116634709D02*
X137160000Y-116840000D01*
X132080000Y-121920000D02*
X116840000Y-137160000D01*
X156175000Y-113300000D02*
X140494709Y-113300000D01*
X116840000Y-137160000D02*
X114300000Y-137160000D01*
X140494709Y-113300000D02*
X137160000Y-116634709D01*
%TO.N,Net-(J2-Pin_1)*%
X116840000Y-129540000D02*
X111760000Y-134620000D01*
X156175000Y-114100000D02*
X142440000Y-114100000D01*
X134992646Y-119907000D02*
X133347709Y-119907000D01*
X142440000Y-114100000D02*
X139700000Y-116840000D01*
X133347709Y-119907000D02*
X123714709Y-129540000D01*
X123714709Y-129540000D02*
X116840000Y-129540000D01*
%TO.N,Net-(U1-PB7)*%
X146920000Y-96520000D02*
X149460000Y-99060000D01*
X156408221Y-117191779D02*
X157837500Y-115762500D01*
X149460000Y-99060000D02*
X149460000Y-103740000D01*
X119500000Y-76500000D02*
X139520000Y-96520000D01*
X139520000Y-96520000D02*
X146920000Y-96520000D01*
X113000000Y-76500000D02*
X119500000Y-76500000D01*
X149460000Y-103740000D02*
X152400000Y-106680000D01*
X155291779Y-117191779D02*
X156408221Y-117191779D01*
%TO.N,Net-(U1-XTAL2)*%
X161020000Y-120380000D02*
X160020000Y-119380000D01*
X160020000Y-117630256D02*
X160020000Y-119380000D01*
X161560000Y-125080000D02*
X161020000Y-124540000D01*
X161037500Y-116612756D02*
X160020000Y-117630256D01*
X161037500Y-115762500D02*
X161037500Y-116612756D01*
X161020000Y-124540000D02*
X161020000Y-120380000D01*
%TO.N,Net-(U1-XTAL1)*%
X161837500Y-118997500D02*
X161837500Y-115762500D01*
X167640000Y-124460000D02*
X167640000Y-121920000D01*
X158980000Y-127000000D02*
X165100000Y-127000000D01*
X162220000Y-119380000D02*
X161837500Y-118997500D01*
X165100000Y-127000000D02*
X167640000Y-124460000D01*
X157060000Y-125080000D02*
X158980000Y-127000000D01*
X167640000Y-121920000D02*
X165100000Y-119380000D01*
X165100000Y-119380000D02*
X162220000Y-119380000D01*
%TO.N,Net-(U1-PD0)*%
X142500000Y-147500000D02*
X149000000Y-147500000D01*
X167640000Y-119380000D02*
X165694972Y-119380000D01*
X149000000Y-147500000D02*
X165485686Y-147500000D01*
X165485686Y-147500000D02*
X178200000Y-134785685D01*
X178200000Y-134785685D02*
X178200000Y-129940000D01*
X162560000Y-115840000D02*
X162637500Y-115762500D01*
X162637500Y-116322528D02*
X162637500Y-115762500D01*
X165694972Y-119380000D02*
X162637500Y-116322528D01*
X178200000Y-129940000D02*
X167640000Y-119380000D01*
%TO.N,Net-(U1-PD1)*%
X165680329Y-118799671D02*
X163437500Y-116556842D01*
X133000000Y-155500000D02*
X139500000Y-155500000D01*
X178600000Y-129774314D02*
X167625356Y-118799671D01*
X158051370Y-155500000D02*
X178600000Y-134951370D01*
X167625356Y-118799671D02*
X165680329Y-118799671D01*
X139500000Y-155500000D02*
X158051370Y-155500000D01*
X163437500Y-116556842D02*
X163437500Y-115762500D01*
X178600000Y-134951370D02*
X178600000Y-129774314D01*
%TO.N,Net-(U1-PD2)*%
X177800000Y-130388530D02*
X177800000Y-134620000D01*
X169755735Y-122344265D02*
X177800000Y-130388530D01*
X175260000Y-137160000D02*
X141840000Y-137160000D01*
X141840000Y-137160000D02*
X139500000Y-139500000D01*
X177800000Y-134620000D02*
X175260000Y-137160000D01*
X133000000Y-139500000D02*
X139500000Y-139500000D01*
%TO.N,Net-(U1-PD3)*%
X130000000Y-147500000D02*
X123500000Y-147500000D01*
X165337501Y-116800000D02*
X165037500Y-116499999D01*
X166191372Y-116800000D02*
X165337501Y-116800000D01*
X165037500Y-116499999D02*
X165037500Y-115762500D01*
%TO.N,Net-(U1-PD5)*%
X170180000Y-114300000D02*
X168717500Y-115762500D01*
X179480000Y-105000000D02*
X210110000Y-105000000D01*
X172720000Y-111760000D02*
X179480000Y-105000000D01*
X168717500Y-115762500D02*
X165837500Y-115762500D01*
X216610000Y-105000000D02*
X210110000Y-105000000D01*
%TO.N,Net-(U1-PD6)*%
X217910000Y-104461522D02*
X217910000Y-119700000D01*
X167500000Y-111700000D02*
X168100000Y-111700000D01*
X210110000Y-121000000D02*
X216610000Y-121000000D01*
X177800000Y-102000000D02*
X215448478Y-102000000D01*
X215448478Y-102000000D02*
X217910000Y-104461522D01*
X217910000Y-119700000D02*
X216610000Y-121000000D01*
X168100000Y-111700000D02*
X177800000Y-102000000D01*
%TO.N,Net-(U1-PD7)*%
X168165686Y-110900000D02*
X167500000Y-110900000D01*
X219610000Y-113000000D02*
X226110000Y-113000000D01*
X226110000Y-110520000D02*
X217190000Y-101600000D01*
X226110000Y-113000000D02*
X226110000Y-110520000D01*
X217190000Y-101600000D02*
X177465686Y-101600000D01*
X177465686Y-101600000D02*
X168165686Y-110900000D01*
%TO.N,Net-(U1-PB4)*%
X199500000Y-85500000D02*
X193000000Y-85500000D01*
X168400000Y-110100000D02*
X167500000Y-110100000D01*
X193000000Y-85500000D02*
X168400000Y-110100000D01*
%TO.N,Net-(U1-PB6)*%
X154091471Y-109220000D02*
X154937500Y-109220000D01*
X113000000Y-85500000D02*
X119500000Y-85500000D01*
X149060000Y-99225686D02*
X149060000Y-104188529D01*
X127934314Y-85500000D02*
X139437158Y-97002843D01*
X165230002Y-109220000D02*
X160020000Y-109220000D01*
X149060000Y-104188529D02*
X154091471Y-109220000D01*
X165950002Y-108500000D02*
X165230002Y-109220000D01*
X146837157Y-97002843D02*
X149060000Y-99225686D01*
X119500000Y-85500000D02*
X127934314Y-85500000D01*
X139437158Y-97002843D02*
X146837157Y-97002843D01*
X165950002Y-108500000D02*
X167500000Y-108500000D01*
%TO.N,Net-(U1-PC6)*%
X167500000Y-107700000D02*
X164645686Y-107700000D01*
X107800000Y-119380000D02*
X114300000Y-119380000D01*
X114300000Y-119380000D02*
X152255028Y-119380000D01*
X152255028Y-119380000D02*
X157480000Y-114155028D01*
%TO.N,Net-(U1-PC7)*%
X189790000Y-155610000D02*
X196290000Y-155610000D01*
X168237499Y-106900000D02*
X167500000Y-106900000D01*
%TO.N,Net-(U1-~{HWB}{slash}PE2)*%
X170180000Y-99060000D02*
X170180000Y-103420000D01*
X170180000Y-103420000D02*
X167500000Y-106100000D01*
%TO.N,Net-(U1-PF0)*%
X158137499Y-101600000D02*
X160237500Y-103700001D01*
X114350000Y-101600000D02*
X147320000Y-101600000D01*
X154940000Y-101600000D02*
X158137499Y-101600000D01*
X160237500Y-103700001D02*
X160237500Y-104437500D01*
X111050000Y-104900000D02*
X114350000Y-101600000D01*
%TO.N,Net-(U1-AREF)*%
X157480000Y-94380000D02*
X154860000Y-97000000D01*
X152800000Y-99060000D02*
X152800000Y-101600000D01*
X159437500Y-103700001D02*
X159437500Y-104437500D01*
X152800000Y-101600000D02*
X154600000Y-103400000D01*
X154600000Y-103400000D02*
X159137499Y-103400000D01*
X157480000Y-93980000D02*
X157480000Y-94380000D01*
X154860000Y-97000000D02*
X152800000Y-99060000D01*
X159137499Y-103400000D02*
X159437500Y-103700001D01*
%TO.N,Net-(J1-D+-PadA6)*%
X173470000Y-73439340D02*
X173470000Y-75560660D01*
X168820000Y-75480000D02*
X168820000Y-79920000D01*
X168820000Y-75974974D02*
X168820000Y-75480000D01*
X173030660Y-73000000D02*
X173470000Y-73439340D01*
X168300000Y-73000000D02*
X173030660Y-73000000D01*
X172900660Y-76130000D02*
X168975026Y-76130000D01*
X173470000Y-75560660D02*
X172900660Y-76130000D01*
X168975026Y-76130000D02*
X168820000Y-75974974D01*
X168820000Y-79920000D02*
X170180000Y-81280000D01*
X167970000Y-74130000D02*
X167970000Y-73330000D01*
X167970000Y-73330000D02*
X168300000Y-73000000D01*
X170180000Y-81280000D02*
X170180000Y-86360000D01*
%TO.N,Net-(J1-CC1)*%
X172720000Y-81280000D02*
X170180000Y-78740000D01*
X174347500Y-81280000D02*
X172720000Y-81280000D01*
%TO.N,Net-(J1-D--PadA7)*%
X167970000Y-75410761D02*
X167970000Y-75480000D01*
X169440500Y-88160500D02*
X170180000Y-88900000D01*
X167970000Y-84234994D02*
X169440500Y-85705494D01*
X168820000Y-74560761D02*
X167970000Y-75410761D01*
X169440500Y-85705494D02*
X169440500Y-88160500D01*
X167970000Y-75480000D02*
X167970000Y-84234994D01*
X168820000Y-74130000D02*
X168820000Y-74560761D01*
%TO.N,Net-(J1-CC2)*%
X166059239Y-73000000D02*
X160680000Y-73000000D01*
X167120000Y-74130000D02*
X167120000Y-74060761D01*
X167120000Y-74060761D02*
X166059239Y-73000000D01*
X160680000Y-73000000D02*
X154940000Y-78740000D01*
%TO.N,Net-(U1-PF5)*%
X162637500Y-103877472D02*
X162637500Y-104437500D01*
%TO.N,Net-(U1-PD2)*%
X164237500Y-115762500D02*
X164237500Y-116508312D01*
X164237500Y-116508312D02*
X165887437Y-118158249D01*
%TO.N,Net-(U1-PF5)*%
X185420000Y-144780000D02*
X190500000Y-149860000D01*
%TD*%
M02*
